<?xml version="1.0" encoding="UTF-8"?>
<!DOCTYPE svg PUBLIC "-//W3C//DTD SVG 1.1//EN" "http://www.w3.org/Graphics/SVG/1.1/DTD/svg11.dtd">
<!-- Creator: CorelDRAW -->
<svg xmlns="http://www.w3.org/2000/svg" xml:space="preserve" width="84.7398mm" height="8.6648mm" version="1.1" style="shape-rendering:geometricPrecision; text-rendering:geometricPrecision; image-rendering:optimizeQuality; fill-rule:evenodd; clip-rule:evenodd"
viewBox="0 0 5561.04 568.63"
 xmlns:xlink="http://www.w3.org/1999/xlink"
 xmlns:xodm="http://www.corel.com/coreldraw/odm/2003">
 <defs>
  <style type="text/css">
   <![CDATA[
    .str0 {stroke:#FEFEFE;stroke-width:3.61;stroke-miterlimit:22.9256}
    .fil11 {fill:none}
    .fil5 {fill:#FEFEFE}
    .fil10 {fill:#FEFEFE}
    .fil4 {fill:#434242}
    .fil2 {fill:#2B2A29}
    .fil13 {fill:#F08143}
    .fil6 {fill:#005196}
    .fil8 {fill:#5AB4B4}
    .fil7 {fill:#D7B46E}
    .fil3 {fill:#FEFEFE;fill-rule:nonzero}
    .fil14 {fill:#FEFEFE;fill-rule:nonzero}
    .fil1 {fill:#FEFEFE;fill-rule:nonzero}
    .fil0 {fill:#FECC00;fill-rule:nonzero}
    .fil12 {fill:#F08143;fill-rule:nonzero}
    .fil9 {fill:#10072F;fill-rule:nonzero}
   ]]>
  </style>
 </defs>
 <g id="Layer_x0020_1">
  <metadata id="CorelCorpID_0Corel-Layer"/>
  <g id="_2618498853328">
   <path class="fil0" d="M407.89 403.13l0 -61.74 12.7 0 0 61.74 -12.7 0zm25.95 0l0 -61.74 13.3 0 25.08 42.41 0 -42.41 12.54 0 0 61.74 -13.12 0 -25.26 -42.42 0 42.42 -12.53 0zm60.8 -19.06l12.54 0c0.47,3.38 1.86,5.88 4.15,7.51 2.29,1.63 5.61,2.45 9.95,2.45 3.67,0 6.47,-0.66 8.34,-1.98 1.88,-1.31 2.81,-3.25 2.81,-5.81 0,-3.75 -5.38,-6.84 -16.14,-9.3l-0.37 -0.09c-0.27,-0.06 -0.72,-0.16 -1.3,-0.29 -5.76,-1.26 -9.86,-2.68 -12.32,-4.25 -2.18,-1.38 -3.83,-3.27 -4.98,-5.64 -1.14,-2.36 -1.72,-5.15 -1.72,-8.37 0,-6.02 2.05,-10.62 6.13,-13.83 4.08,-3.21 9.96,-4.81 17.67,-4.81 7.21,0 12.85,1.71 16.92,5.13 4.06,3.42 6.19,8.23 6.42,14.45l-12.19 0c-0.23,-2.99 -1.38,-5.26 -3.43,-6.84 -2.08,-1.56 -5.01,-2.34 -8.85,-2.34 -3.32,0 -5.89,0.64 -7.68,1.94 -1.8,1.3 -2.71,3.16 -2.71,5.56 0,3.27 3.51,5.72 10.52,7.33 1.9,0.46 3.38,0.8 4.44,1.06 4.51,1.15 7.7,2.03 9.59,2.68 1.88,0.64 3.52,1.36 4.93,2.13 2.52,1.4 4.39,3.25 5.65,5.55 1.26,2.3 1.89,5.07 1.89,8.29 0,6.42 -2.16,11.41 -6.5,14.94 -4.34,3.54 -10.45,5.3 -18.32,5.3 -7.78,0 -13.87,-1.8 -18.29,-5.41 -4.42,-3.6 -6.8,-8.73 -7.13,-15.37zm72.91 19.06l0 -50.75 -18.3 0 0 -10.99 49.21 0 0 10.99 -18.2 0 0 50.75 -12.7 0zm38.65 0l0 -61.74 12.7 0 0 61.74 -12.7 0zm38.74 0l0 -50.75 -18.29 0 0 -10.99 49.2 0 0 10.99 -18.2 0 0 50.75 -12.7 0zm37.88 -61.91l12.8 0 0 38.73c0,4.76 0.94,8.26 2.85,10.45 1.9,2.19 4.92,3.29 9.08,3.29 4.19,0 7.24,-1.09 9.15,-3.27 1.92,-2.19 2.88,-5.68 2.88,-10.47l0 -38.73 12.7 0 0 40.1c0,7.59 -2.11,13.39 -6.35,17.45 -4.24,4.05 -10.33,6.08 -18.29,6.08 -8.03,0 -14.17,-2.01 -18.42,-6.05 -4.27,-4.05 -6.4,-9.88 -6.4,-17.48l0 -40.1zm74.69 61.91l0 -50.75 -18.29 0 0 -10.99 49.2 0 0 10.99 -18.2 0 0 50.75 -12.7 0zm38.23 0l0 -61.74 44.85 0 0 10.73 -32.31 0 0 13.14 29.55 0 0 10.57 -29.55 0 0 15.89 33.83 0 0 11.42 -46.36 0zm149.23 0l0 -61.74 43.11 0 0 10.73 -30.57 0 0 14 26.79 0 0 10.74 -26.79 0 0 26.28 -12.54 0zm-57.44 -30.83c0,6.8 1.5,12.07 4.52,15.83 3.02,3.77 7.24,5.64 12.65,5.64 5.48,0 9.73,-1.88 12.78,-5.64 3.05,-3.76 4.57,-9.03 4.57,-15.83 0,-6.8 -1.52,-12.06 -4.57,-15.83 -3.05,-3.76 -7.3,-5.64 -12.78,-5.64 -5.41,0 -9.63,1.88 -12.65,5.62 -3.02,3.73 -4.52,9.02 -4.52,15.84zm-12.97 0c0,-9.97 2.72,-17.9 8.16,-23.76 5.44,-5.85 12.76,-8.79 21.98,-8.79 9.21,0 16.57,2.93 22.02,8.8 5.47,5.89 8.2,13.78 8.2,23.74 0,9.95 -2.73,17.86 -8.2,23.74 -5.45,5.87 -12.81,8.8 -22.02,8.8 -9.22,0 -16.54,-2.93 -21.98,-8.8 -5.44,-5.88 -8.16,-13.79 -8.16,-23.74zm-444.1 70.97l-8.56 26.28 17.14 0 -8.58 -26.28zm-7.38 -12.36l14.67 0 22.27 61.73 -13.33 0 -4.19 -12.7 -23.93 0 -4.07 12.7 -13.38 0 21.97 -61.73zm43.29 61.73l0 -61.73 44.85 0 0 10.73 -32.31 0 0 13.14 29.55 0 0 10.56 -29.55 0 0 15.89 33.83 0 0 11.42 -46.37 0zm68.77 -34.77l14.94 0c3.25,0 5.64,-0.66 7.15,-1.96 1.54,-1.31 2.29,-3.37 2.29,-6.19 0,-2.68 -0.74,-4.71 -2.22,-6.08 -1.49,-1.38 -3.69,-2.07 -6.64,-2.07l-15.53 0 0 16.31zm-12.71 34.77l0 -61.73 29.97 0c6.74,0 11.72,1.42 14.97,4.3 3.25,2.87 4.87,7.28 4.87,13.2 0,3.76 -0.79,6.91 -2.38,9.42 -1.57,2.51 -3.85,4.23 -6.82,5.15 2.68,0.96 4.58,2.4 5.71,4.36 1.14,1.96 1.78,5.01 1.95,9.14l0.26 7.3c0,0.06 0,0.14 0,0.26 0.09,3.69 0.89,5.93 2.41,6.71l0 1.89 -13.91 0c-0.45,-0.87 -0.79,-1.93 -1.03,-3.2 -0.23,-1.28 -0.37,-2.8 -0.43,-4.55l-0.17 -6.51c-0.14,-3.83 -0.85,-6.41 -2.16,-7.76 -1.3,-1.35 -3.65,-2.01 -7.03,-2.01l-13.48 0 0 24.04 -12.71 0zm71.6 -30.82c0,6.8 1.5,12.07 4.52,15.83 3.02,3.76 7.24,5.64 12.65,5.64 5.48,0 9.73,-1.88 12.78,-5.64 3.05,-3.76 4.57,-9.03 4.57,-15.83 0,-6.8 -1.52,-12.06 -4.57,-15.83 -3.05,-3.76 -7.3,-5.64 -12.78,-5.64 -5.41,0 -9.63,1.88 -12.65,5.62 -3.02,3.73 -4.52,9.02 -4.52,15.84zm-12.97 0c0,-9.97 2.72,-17.9 8.16,-23.76 5.44,-5.85 12.76,-8.79 21.98,-8.79 9.21,0 16.57,2.93 22.02,8.8 5.47,5.89 8.2,13.78 8.2,23.74 0,9.95 -2.73,17.86 -8.2,23.74 -5.45,5.87 -12.8,8.8 -22.02,8.8 -9.22,0 -16.54,-2.93 -21.98,-8.8 -5.44,-5.88 -8.16,-13.79 -8.16,-23.74zm70.41 30.82l0 -61.73 13.3 0 25.09 42.41 0 -42.41 12.53 0 0 61.73 -13.12 0 -25.26 -42.41 0 42.41 -12.54 0zm86.64 -49.37l-8.56 26.28 17.15 0 -8.59 -26.28zm-7.38 -12.36l14.67 0 22.27 61.73 -13.34 0 -4.19 -12.7 -23.93 0 -4.06 12.7 -13.38 0 21.96 -61.73zm41.44 -0.17l12.8 0 0 38.73c0,4.76 0.94,8.26 2.85,10.45 1.9,2.19 4.92,3.29 9.08,3.29 4.19,0 7.24,-1.09 9.15,-3.26 1.92,-2.19 2.88,-5.68 2.88,-10.47l0 -38.73 12.7 0 0 40.1c0,7.59 -2.12,13.39 -6.35,17.44 -4.24,4.05 -10.34,6.08 -18.29,6.08 -8.03,0 -14.17,-2.02 -18.42,-6.06 -4.27,-4.05 -6.4,-9.87 -6.4,-17.47l0 -40.1zm74.69 61.9l0 -50.75 -18.3 0 0 -10.99 49.21 0 0 10.99 -18.2 0 0 50.75 -12.7 0zm38.65 0l0 -61.73 12.7 0 0 61.73 -12.7 0zm79.7 -21.2c-0.47,7.01 -3.18,12.59 -8.11,16.72 -4.93,4.14 -11.37,6.2 -19.3,6.2 -9.14,0 -16.24,-2.85 -21.3,-8.56 -5.09,-5.7 -7.62,-13.7 -7.62,-23.99 0,-10.52 2.59,-18.56 7.76,-24.16 5.17,-5.6 12.6,-8.39 22.3,-8.39 7.87,0 14.1,1.92 18.66,5.77 4.58,3.85 7.08,9.27 7.53,16.3l-12.54 0c-0.52,-3.49 -1.96,-6.16 -4.26,-7.99 -2.32,-1.83 -5.46,-2.75 -9.39,-2.75 -5.58,0 -9.83,1.8 -12.74,5.41 -2.91,3.6 -4.35,8.87 -4.35,15.8 0,6.7 1.44,11.89 4.34,15.54 2.89,3.66 7,5.5 12.34,5.5 3.85,0 7.01,-0.99 9.46,-2.95 2.46,-1.96 4.06,-4.8 4.78,-8.47l12.45 0zm33.14 -28.17l-8.56 26.28 17.14 0 -8.58 -26.28zm-7.38 -12.36l14.67 0 22.27 61.73 -13.33 0 -4.19 -12.7 -23.93 0 -4.07 12.7 -13.37 0 21.96 -61.73zm43.29 61.73l0 -61.73 12.7 0 0 50.31 30.14 0 0 11.42 -42.85 0zm75.23 0l0 -61.73 44.85 0 0 10.73 -32.31 0 0 13.14 29.54 0 0 10.56 -29.54 0 0 15.89 33.83 0 0 11.42 -46.37 0zm56.06 0l0 -61.73 13.3 0 25.09 42.41 0 -42.41 12.54 0 0 61.73 -13.12 0 -25.26 -42.41 0 42.41 -12.54 0zm108.09 -7.3c-2.28,3.1 -4.89,5.38 -7.81,6.84 -2.93,1.45 -6.35,2.18 -10.29,2.18 -8.64,0 -15.63,-3.01 -20.98,-9 -5.35,-5.99 -8.03,-13.87 -8.03,-23.62 0,-9.84 2.67,-17.7 8.01,-23.61 5.34,-5.9 12.45,-8.85 21.33,-8.85 7.74,0 14.06,1.86 18.95,5.56 4.88,3.71 7.8,8.8 8.71,15.3l-12.97 0c-0.79,-3.22 -2.38,-5.66 -4.8,-7.35 -2.41,-1.68 -5.56,-2.52 -9.44,-2.52 -5.16,0 -9.22,1.89 -12.17,5.68 -2.95,3.79 -4.42,9.02 -4.42,15.7 0,6.71 1.53,11.96 4.61,15.77 3.06,3.79 7.28,5.7 12.65,5.7 4.02,0 7.38,-1.19 10.09,-3.56 2.7,-2.36 4.38,-5.61 5.03,-9.75l-13.98 0 0 -10.56 25.57 0 0 33.4 -8.53 0 -1.55 -7.3zm22.69 7.3l0 -61.73 12.7 0 0 61.73 -12.7 0zm25.95 0l0 -61.73 13.29 0 25.09 42.41 0 -42.41 12.54 0 0 61.73 -13.12 0 -25.26 -42.41 0 42.41 -12.53 0zm63.64 0l0 -61.73 44.85 0 0 10.73 -32.31 0 0 13.14 29.55 0 0 10.56 -29.55 0 0 15.89 33.83 0 0 11.42 -46.37 0zm56.06 0l0 -61.73 44.85 0 0 10.73 -32.31 0 0 13.14 29.55 0 0 10.56 -29.55 0 0 15.89 33.84 0 0 11.42 -46.37 0zm68.76 -34.77l14.94 0c3.25,0 5.64,-0.66 7.15,-1.96 1.54,-1.31 2.29,-3.37 2.29,-6.19 0,-2.68 -0.74,-4.71 -2.22,-6.08 -1.49,-1.38 -3.69,-2.07 -6.64,-2.07l-15.53 0 0 16.31zm-12.7 34.77l0 -61.73 29.96 0c6.74,0 11.72,1.42 14.97,4.3 3.25,2.87 4.87,7.28 4.87,13.2 0,3.76 -0.79,6.91 -2.38,9.42 -1.57,2.51 -3.85,4.23 -6.82,5.15 2.68,0.96 4.58,2.4 5.71,4.36 1.13,1.96 1.77,5.01 1.94,9.14l0.26 7.3c0,0.06 0,0.14 0,0.26 0.09,3.69 0.89,5.93 2.41,6.71l0 1.89 -13.91 0c-0.45,-0.87 -0.79,-1.93 -1.03,-3.2 -0.23,-1.28 -0.37,-2.8 -0.43,-4.55l-0.18 -6.51c-0.14,-3.83 -0.85,-6.41 -2.16,-7.76 -1.3,-1.35 -3.65,-2.01 -7.02,-2.01l-13.49 0 0 24.04 -12.7 0zm61.72 0l0 -61.73 12.71 0 0 61.73 -12.71 0zm25.95 0l0 -61.73 13.3 0 25.09 42.41 0 -42.41 12.53 0 0 61.73 -13.12 0 -25.26 -42.41 0 42.41 -12.54 0zm108.09 -7.3c-2.29,3.1 -4.9,5.38 -7.82,6.84 -2.93,1.45 -6.35,2.18 -10.29,2.18 -8.64,0 -15.63,-3.01 -20.97,-9 -5.35,-5.99 -8.03,-13.87 -8.03,-23.62 0,-9.84 2.68,-17.7 8.01,-23.61 5.34,-5.9 12.45,-8.85 21.34,-8.85 7.74,0 14.05,1.86 18.95,5.56 4.88,3.71 7.8,8.8 8.71,15.3l-12.96 0c-0.79,-3.22 -2.38,-5.66 -4.8,-7.35 -2.42,-1.68 -5.57,-2.52 -9.45,-2.52 -5.16,0 -9.21,1.89 -12.16,5.68 -2.95,3.79 -4.42,9.02 -4.42,15.7 0,6.71 1.54,11.96 4.61,15.77 3.06,3.79 7.28,5.7 12.65,5.7 4.02,0 7.38,-1.19 10.09,-3.56 2.71,-2.36 4.38,-5.61 5.03,-9.75l-13.98 0 0 -10.56 25.57 0 0 33.4 -8.52 0 -1.55 -7.3z"/>
   <path class="fil1" d="M403.99 299.73l0 -186.98 38.48 0 0 186.98 -38.48 0zm148.23 -149.53l-25.92 79.58 51.92 0 -26.01 -79.58zm-22.36 -37.45l44.43 0 67.44 186.98 -40.39 0 -12.7 -38.49 -72.47 0 -12.31 38.49 -40.52 0 66.53 -186.98zm169.59 81.66l45.25 0c9.84,0 17.08,-1.99 21.67,-5.94 4.64,-3.99 6.94,-10.23 6.94,-18.77 0,-8.1 -2.25,-14.26 -6.72,-18.42 -4.51,-4.21 -11.18,-6.29 -20.11,-6.29l-47.03 0 0 49.42zm-38.48 105.32l0 -186.98 90.76 0c20.42,0 35.49,4.34 45.33,13.05 9.84,8.71 14.73,22.06 14.73,39.96 0,11.4 -2.38,20.93 -7.19,28.52 -4.77,7.63 -11.65,12.83 -20.67,15.61 8.1,2.9 13.87,7.28 17.29,13.22 3.42,5.94 5.37,15.17 5.89,27.69l0.78 22.1c0,0.18 0,0.43 0,0.78 0.26,11.18 2.69,17.95 7.28,20.33l0 5.72 -42.13 0c-1.34,-2.64 -2.38,-5.85 -3.12,-9.71 -0.7,-3.86 -1.13,-8.45 -1.3,-13.78l-0.52 -19.72c-0.43,-11.62 -2.6,-19.42 -6.54,-23.49 -3.94,-4.07 -11.05,-6.11 -21.28,-6.11l-40.83 0 0 72.82 -38.48 0zm185.63 0l0 -186.98 135.83 0 0 32.51 -97.86 0 0 39.79 89.5 0 0 31.99 -89.5 0 0 48.1 102.45 0 0 34.59 -140.42 0z"/>
   <path class="fil2" d="M300.53 249.45l-0.03 0.77c-0.05,1.4 -0.1,2.8 -0.16,4.18l0.2 -4.95zm-8.41 75.05c-13.02,59.74 -44.48,111.18 -119.59,141.07 -74.35,-30.31 -106.35,-79.49 -119.75,-141l119.75 -54.2 119.59 54.12z"/>
   <path class="fil3" d="M305.81 249.64l-0.03 0.78 -0.08 2.09 0 0.02 -0.09 2.09 -10.55 -0.41 0.09 -2.09 0 0 0.08 -2.07 0.03 -0.78 10.55 0.37zm-8.52 75.99c-6.67,30.59 -18.1,59.11 -37.52,83.88 -19.42,24.75 -46.78,45.65 -85.29,60.98l-3.93 0c-38.08,-15.51 -65.36,-35.94 -84.89,-60.41 -19.52,-24.47 -31.19,-52.87 -38.05,-84.37l-0.91 -4.17 3.9 -1.77 119.75 -54.2 2.17 -0.98 2.18 0.98 119.59 54.13 3.91 1.77 -0.91 4.17zm-45.85 77.34c17.46,-22.25 28.1,-47.86 34.56,-75.42l-113.49 -51.35 -113.63 51.43c6.63,28.34 17.48,53.87 35.04,75.87 18.08,22.66 43.37,41.7 78.64,56.38 35.55,-14.49 60.87,-33.97 78.87,-56.91z"/>
   <path class="fil4" d="M41.92 157.78l260.98 0c0.16,54.19 2.05,110.23 -8.92,160.49l-121.53 -54.95 -121.69 55.03c-10.31,-47.3 -9.76,-101.78 -8.85,-160.56z"/>
   <path class="fil3" d="M41.92 152.49l266.23 0 0.02 5.28c0.01,6.36 0.06,12.8 0.1,19.24 0.33,48.4 0.66,97.54 -9.13,142.35l-1.39 6.38 -5.93 -2.68 -119.37 -53.98 -119.52 54.06 -5.94 2.68 -1.39 -6.37c-5.21,-23.93 -7.68,-49.69 -8.73,-76.91 -1.04,-26.96 -0.67,-55.37 -0.2,-84.86l0.08 -5.2 5.18 0zm255.75 10.57l-250.56 0c-0.42,27.43 -0.68,53.9 0.29,79.12 0.93,24.13 3.01,47.11 7.21,68.64l115.69 -52.32 2.17 -0.98 2.17 0.98 115.53 52.24c8.22,-42.12 7.91,-88.23 7.61,-133.67 -0.03,-4.67 -0.07,-9.34 -0.09,-14z"/>
   <path class="fil5" d="M207.64 262.03l93.5 4.62 -0.01 0.05 -93.14 4.61 -2.32 0 -0.1 0.54 1.84 0.57 86.39 31.17 -71.88 -17.9 -49.51 -22.38 -49.11 22.21 -72.59 18.08 86.38 -31.17 1.84 -0.57 -0.1 -0.54 -1.98 0 -93.36 -4.61 -0.01 -0.06 93.37 -4.61 1.98 0 0.11 -0.54 -1.84 -0.56 -86.4 -31.18 89.87 22.36 2.17 0.67 0.34 -0.48 -1.5 -1.06 -68.41 -53.96 75.28 46.66 1.78 1.25c0.17,-0.12 0.34,-0.24 0.51,-0.35l-0.98 -1.42 -42.16 -70.23 51.62 65.34 1.15 1.67 0.63 -0.2 -0.35 -1.61 -10.85 -78.02 21.72 76.13 0.42 1.89 0.66 0 0.33 -1.61 21.8 -76.41 -10.79 77.73 -0.4 1.9 0.62 0.2 0.98 -1.42 51.8 -65.58 -41.99 69.96 -1.17 1.67c0.17,0.11 0.34,0.24 0.51,0.35l1.5 -1.05 75.55 -46.85 -68.14 53.78 -1.77 1.23 0.34 0.49 1.84 -0.56 90.19 -22.46 -86.07 31.08 -2.16 0.66c0.04,0.18 0.09,0.36 0.1,0.54l1.97 0z"/>
   <g>
    <path class="fil3" d="M300.87 271.93l-93.5 -4.62 0.52 -10.55 93.5 4.62 4.97 6.02 -5.49 4.53zm0.52 -10.55l5.79 0.29 -0.82 5.74 -4.97 -6.02zm-5.5 4.57l0.01 -0.05 10.46 1.5 -0.01 0.05 -4.97 4.53 -5.49 -6.02zm10.46 1.5l-0.62 4.31 -4.35 0.22 4.97 -4.53zm-98.63 -1.41l93.14 -4.61 0.52 10.55 -93.14 4.61 -0.26 0.01 -0.26 -10.56zm0.52 10.55l-0.13 0.01 -0.13 0 0.26 -0.01zm-2.58 -10.56l2.32 0 0 10.57 -2.32 0 -5.18 -6.29 5.18 -4.27zm-5.18 4.27l0.83 -4.27 4.35 0 -5.18 4.27zm-0.1 0.54l0.1 -0.54 10.37 2.02 -0.1 0.54 -6.75 4.04 -3.62 -6.06zm3.62 6.06l-4.52 -1.4 0.91 -4.65 3.62 6.06zm1.84 0.57l-1.84 -0.57 3.14 -10.09 1.84 0.57 0.22 0.08 -3.36 10.01zm3.14 -10.09l0.22 0.08 -0.19 -0.07 -0.03 -0.01zm83.03 41.19l-86.39 -31.17 3.58 -9.94 86.39 31.17 -3.07 10.09 -0.51 -0.16zm-68.81 -28l71.88 17.9 -2.56 10.25 -71.88 -17.9 -0.9 -0.31 3.46 -9.94zm-2.56 10.25l-0.49 -0.12 -0.41 -0.19 0.9 0.31zm-46.06 -32.33l49.51 22.38 -4.36 9.63 -49.51 -22.38 0 -9.63 4.36 0zm-4.36 0l2.18 -0.98 2.18 0.98 -4.36 0zm-49.11 22.21l49.11 -22.21 4.36 9.63 -49.11 22.21 -0.9 0.31 -3.46 -9.94zm4.36 9.63l-0.41 0.19 -0.49 0.12 0.9 -0.31zm-76.05 8.14l72.59 -18.08 2.56 10.25 -72.59 18.08 -3.07 -10.09 0.51 -0.16zm89.45 -21.08l-86.38 31.17 -3.58 -9.94 86.38 -31.17 0.23 -0.08 3.35 10.01zm-3.58 -9.94l0.15 -0.05 0.08 -0.03 -0.23 0.08zm5.2 9.44l-1.84 0.57 -3.12 -10.09 1.84 -0.57 6.75 4.04 -3.62 6.06zm3.62 -6.06l0.91 4.65 -4.53 1.4 3.62 -6.06zm-0.1 -0.54l0.1 0.54 -10.37 2.02 -0.1 -0.54 5.18 -6.29 5.18 4.27zm-5.18 -4.27l4.35 0 0.83 4.27 -5.18 -4.27zm-1.98 0l1.98 0 0 10.57 -1.98 0 -0.26 -0.01 0.26 -10.56zm0 10.57l-0.13 0 -0.13 -0.01 0.26 0.01zm-93.1 -15.17l93.36 4.61 -0.52 10.55 -93.36 -4.61 -4.99 -4.69 5.51 -5.86zm-0.52 10.55l-4.49 -0.22 -0.5 -4.47 4.99 4.69zm5.51 -5.92l0.01 0.06 -10.5 1.17 -0.01 -0.06 4.99 -5.86 5.51 4.69zm-10.5 1.17l-0.62 -5.58 5.61 -0.28 -4.99 5.86zm98.88 0.09l-93.37 4.61 -0.52 -10.55 93.37 -4.61 0.26 -0.01 0.26 10.56zm-0.52 -10.55l0.13 -0.01 0.13 0 -0.26 0.01zm2.24 10.56l-1.98 0 0 -10.57 1.98 0 5.18 6.35 -5.18 4.22zm5.18 -4.22l-0.87 4.22 -4.31 0 5.18 -4.22zm0.11 -0.54l-0.11 0.54 -10.36 -2.13 0.11 -0.54 6.71 -3.99 3.64 6.12zm-3.64 -6.12l4.61 1.4 -0.96 4.72 -3.64 -6.12zm-1.84 -0.56l1.84 0.56 -3.07 10.11 -1.84 -0.56 -0.26 -0.09 3.33 -10.02zm-3.07 10.11l-0.12 -0.04 -0.13 -0.05 0.26 0.09zm-83.07 -41.2l86.4 31.18 -3.58 9.94 -86.4 -31.18 3.06 -10.09 0.52 0.16zm86.8 32.45l-89.87 -22.36 2.55 -10.25 89.87 22.36 0.28 0.08 -2.83 10.17zm2.55 -10.25l0.14 0.03 0.14 0.05 -0.28 -0.08zm-0.66 10.84l-2.17 -0.67 3.11 -10.09 2.17 0.67 2.75 8.11 -5.86 1.98zm5.86 -1.98l-2.21 3.1 -3.65 -1.12 5.86 -1.98zm0.34 -0.48l-0.34 0.48 -8.61 -6.13 0.34 -0.48 7.33 -1.27 1.28 7.4zm-1.28 -7.4l4.37 3.05 -3.09 4.34 -1.28 -7.4zm-1.5 -1.05l1.5 1.05 -6.05 8.66 -1.5 -1.05 -0.25 -0.18 6.3 -8.48zm-6.05 8.66l-0.14 -0.1 -0.1 -0.09 0.25 0.18zm-62.11 -62.45l68.41 53.97 -6.55 8.29 -68.41 -53.97 6.06 -8.64 0.49 0.34zm69.22 55.3l-75.28 -46.66 5.56 -8.98 75.28 46.66 0.25 0.16 -5.81 8.81zm5.56 -8.98l0.13 0.09 0.12 0.08 -0.25 -0.16zm-4.04 10.06l-1.78 -1.25 6.06 -8.65 1.78 1.25 -0.03 8.67 -6.04 -0.02zm6.04 0.02l-3.03 2.09 -3.01 -2.11 6.04 0.02zm-6.84 -1.69l8.69 -6.01 -1.37 7.38 -0.11 0.07 -0.1 0.07 -0.13 0.09 -0.12 0.09 -6.01 -8.69 0.12 -0.09 0.13 -0.09 0.14 -0.1 0.14 -0.1 -1.37 7.38zm8.69 -6.01l3.03 4.38 -4.4 2.99 1.37 -7.38zm-0.98 -1.42l0.98 1.42 -8.69 6.01 -0.98 -1.42 -0.18 -0.29 8.87 -5.72zm-8.69 6.01l-0.08 -0.11 -0.1 -0.18 0.18 0.29zm-33.29 -75.95l42.16 70.23 -9.06 5.43 -42.16 -70.23 8.68 -5.99 0.38 0.56zm42.94 71.33l-51.62 -65.34 8.29 -6.55 51.62 65.34 0.19 0.26 -8.49 6.29zm8.29 -6.55l0.1 0.13 0.09 0.12 -0.19 -0.26zm-7.33 7.95l-1.15 -1.66 8.68 -6.04 1.15 1.66 -2.76 8.06 -5.91 -2.02zm5.91 2.02l-3.7 1.15 -2.21 -3.18 5.91 2.02zm0.63 -0.2l-0.63 0.2 -3.15 -10.08 0.63 -0.2 6.74 3.92 -3.59 6.16zm3.59 -6.16l1.02 4.71 -4.61 1.44 3.59 -6.16zm-0.35 -1.61l0.35 1.61 -10.33 2.23 -0.35 -1.61 -0.07 -0.39 10.39 -1.84zm-10.33 2.23l-0.03 -0.15 -0.03 -0.24 0.07 0.39zm-0.45 -79.87l10.85 78.02 -10.46 1.46 -10.85 -78.02 10.31 -2.18 0.15 0.72zm11.41 78.31l-21.72 -76.13 10.16 -2.9 21.72 76.13 0.08 0.3 -10.24 2.6zm10.16 -2.9l0.05 0.18 0.03 0.12 -0.08 -0.3zm-9.82 4.49l-0.42 -1.89 10.32 -2.3 0.42 1.89 -5.16 6.43 -5.16 -4.13zm5.16 4.13l-4.24 0 -0.92 -4.13 5.16 4.13zm0.66 0l-0.66 0 0 -10.57 0.66 0 5.18 6.34 -5.18 4.23zm5.18 -4.23l-0.86 4.23 -4.32 0 5.18 -4.23zm0.33 -1.61l-0.33 1.61 -10.36 -2.11 0.33 -1.61 0.1 -0.39 10.26 2.51zm-10.36 -2.11l0.03 -0.17 0.07 -0.22 -0.1 0.39zm32.06 -73.91l-21.8 76.41 -10.16 -2.9 21.8 -76.41 10.31 2.18 -0.15 0.72zm-21.1 75.55l10.79 -77.73 10.46 1.46 -10.79 77.73 -0.06 0.36 -10.4 -1.82zm10.46 1.46l-0.03 0.24 -0.03 0.12 0.06 -0.36zm-10.8 0.08l0.4 -1.9 10.34 2.18 -0.4 1.9 -6.76 3.95 -3.58 -6.13zm3.58 6.13l-4.57 -1.44 0.99 -4.69 3.58 6.13zm0.62 0.2l-0.62 -0.2 3.18 -10.08 0.62 0.2 2.75 8.05 -5.93 2.03zm5.93 -2.03l-2.22 3.2 -3.71 -1.17 5.93 -2.03zm0.98 -1.42l-0.98 1.42 -8.68 -6.02 0.98 -1.42 0.19 -0.26 8.49 6.29zm-8.68 -6.02l0.12 -0.18 0.07 -0.09 -0.19 0.26zm60.28 -59.29l-51.8 65.58 -8.29 -6.55 51.8 -65.58 8.68 5.99 -0.38 0.56zm-50.66 63.97l41.99 -69.96 9.06 5.43 -41.99 69.96 -0.2 0.31 -8.86 -5.74zm9.06 5.43l-0.11 0.19 -0.09 0.12 0.2 -0.31zm-10.03 -4.07l1.17 -1.67 8.66 6.05 -1.17 1.67 -7.34 1.32 -1.33 -7.37zm1.33 7.37l-4.36 -3.02 3.04 -4.35 1.33 7.37zm0.49 -8.33l6.05 8.66 -5.92 0.09 -0.17 -0.11 -0.2 -0.14 -0.13 -0.09 -0.12 -0.09 6.01 -8.69 0.12 0.09 0.13 0.09 0.05 0.03 0.09 0.06 -5.92 0.09zm6.05 8.66l-2.93 2.05 -2.99 -1.96 5.92 -0.09zm1.5 -1.05l-1.5 1.05 -6.05 -8.66 1.5 -1.05 0.24 -0.16 5.81 8.82zm-6.05 -8.66l0.09 -0.06 0.16 -0.1 -0.24 0.16zm81.36 -38.03l-75.55 46.85 -5.56 -8.98 75.55 -46.85 6.06 8.64 -0.49 0.34zm-74.2 45.14l68.14 -53.78 6.55 8.29 -68.14 53.78 -0.27 0.2 -6.28 -8.49zm6.55 8.29l-0.11 0.09 -0.16 0.11 0.27 -0.2zm-8.05 -7.26l1.77 -1.23 6.01 8.69 -1.77 1.23 -7.33 -1.31 1.32 -7.38zm-1.32 7.38l-3.06 -4.35 4.38 -3.03 -1.32 7.38zm0.34 0.49l-0.34 -0.49 8.65 -6.08 0.34 0.49 -2.78 8.09 -5.87 -2.01zm5.87 2.01l-3.67 1.12 -2.2 -3.14 5.87 2.01zm1.84 -0.56l-1.84 0.56 -3.1 -10.11 1.84 -0.56 0.27 -0.07 2.83 10.18zm-3.1 -10.11l0.09 -0.03 0.18 -0.05 -0.27 0.07zm93.02 -12.28l-90.19 22.46 -2.56 -10.25 90.19 -22.46 3.07 10.09 -0.51 0.16zm-89.14 20.99l86.07 -31.08 3.58 9.94 -86.07 31.08 -0.26 0.09 -3.33 -10.02zm3.58 9.94l-0.13 0.05 -0.12 0.04 0.26 -0.09zm-5.49 -9.36l2.16 -0.66 3.07 10.11 -2.16 0.66 -6.7 -3.94 3.63 -6.16zm-3.63 6.16l-1.02 -4.75 4.65 -1.41 -3.63 6.16zm5.27 -5.85l0 10.57 -5.27 -4.91 0.04 0.35 0 0.01 0 -0.01 -0.04 -0.16 10.33 -2.22 0.03 0.11 0.05 0.26 0.05 0.28 0.08 0.63 -5.27 -4.91zm0 10.57l-4.92 0 -0.35 -4.91 5.27 4.91zm1.97 0l-1.97 0 0 -10.57 1.97 0 0.26 0.01 -0.26 10.56zm0 -10.57l0.13 0 0.13 0.01 -0.26 -0.01z"/>
   </g>
   <path class="fil6" d="M300.53 249.45l-0.03 0.77c-0.05,1.4 -0.1,2.8 -0.16,4.18l0.2 -4.95zm-8.41 75.05c-13.02,59.74 -44.48,111.18 -119.59,141.07 -74.35,-30.31 -106.35,-79.49 -119.75,-141l119.75 -54.2 119.59 54.12z"/>
   <path class="fil7" d="M41.92 157.78l260.98 0c0.16,54.19 2.05,110.23 -8.92,160.49l-121.53 -54.95 -121.69 55.03c-10.31,-47.3 -9.76,-101.78 -8.85,-160.56z"/>
   <path class="fil5" d="M207.64 262.03l93.5 4.62 -0.01 0.05 -93.14 4.61 -2.32 0 -0.1 0.54 1.84 0.57 86.39 31.17 -71.88 -17.9 -49.51 -22.38 -49.11 22.21 -72.59 18.08 86.38 -31.17 1.84 -0.57 -0.1 -0.54 -1.98 0 -93.36 -4.61 -0.01 -0.06 93.37 -4.61 1.98 0 0.11 -0.54 -1.84 -0.56 -86.4 -31.18 89.87 22.36 2.17 0.67 0.34 -0.48 -1.5 -1.06 -68.41 -53.96 75.28 46.66 1.78 1.25c0.17,-0.12 0.34,-0.24 0.51,-0.35l-0.98 -1.42 -42.16 -70.23 51.62 65.34 1.15 1.67 0.63 -0.2 -0.35 -1.61 -10.85 -78.02 21.72 76.13 0.42 1.89 0.66 0 0.33 -1.61 21.8 -76.41 -10.79 77.73 -0.4 1.9 0.62 0.2 0.98 -1.42 51.8 -65.58 -41.99 69.96 -1.17 1.67c0.17,0.11 0.34,0.24 0.51,0.35l1.5 -1.05 75.55 -46.85 -68.14 53.78 -1.77 1.23 0.34 0.49 1.84 -0.56 90.19 -22.46 -86.07 31.08 -2.16 0.66c0.04,0.18 0.09,0.36 0.1,0.54l1.97 0z"/>
   <path class="fil1" d="M-0 339.97l21.19 -6.07 3.66 12.76 -3.82 1.09 -2.54 -8.88 -4.38 1.25 2.35 8.19 -3.9 1.12 -2.35 -8.19 -5.18 1.49 2.68 9.34 -3.91 1.12 -3.79 -13.23zm6.37 21.96l20.57 -7.89 2.74 7.14c0.43,1.13 0.54,2.24 0.31,3.35 -0.23,1.1 -0.72,2.12 -1.46,3.08 -0.75,0.95 -1.69,1.82 -2.82,2.59 -1.12,0.77 -2.35,1.4 -3.69,1.92 -1.31,0.51 -2.64,0.85 -3.98,1.02 -1.35,0.18 -2.62,0.16 -3.81,-0.05 -1.19,-0.21 -2.23,-0.66 -3.14,-1.32 -0.91,-0.67 -1.58,-1.56 -2.01,-2.68l-2.74 -7.15zm5.14 2.06l1.21 3.14c0.3,0.78 0.87,1.34 1.71,1.67 0.83,0.33 1.81,0.44 2.93,0.35 1.11,-0.1 2.23,-0.37 3.38,-0.81 1.17,-0.45 2.22,-1.01 3.12,-1.69 0.91,-0.68 1.56,-1.42 1.97,-2.22 0.41,-0.81 0.46,-1.6 0.16,-2.39l-1.21 -3.15 -13.27 5.1zm11.14 16.91l12.99 -6.06 1.59 3.41 -13.54 6.31c-1.06,0.49 -1.74,1.17 -2.05,2.03 -0.31,0.87 -0.28,1.71 0.1,2.53 0.39,0.83 1.01,1.4 1.88,1.72 0.87,0.32 1.83,0.24 2.89,-0.26l13.53 -6.31 1.69 3.64 -12.98 6.05c-1.62,0.75 -3.16,1.1 -4.61,1.03 -1.45,-0.07 -2.7,-0.47 -3.75,-1.21 -1.05,-0.73 -1.84,-1.66 -2.37,-2.8 -0.38,-0.81 -0.59,-1.69 -0.64,-2.62 -0.04,-0.94 0.12,-1.87 0.48,-2.8 0.35,-0.93 0.94,-1.79 1.74,-2.61 0.8,-0.81 1.82,-1.5 3.04,-2.07zm12.81 18.53c1.17,-0.68 2.4,-1.22 3.68,-1.64 1.29,-0.42 2.58,-0.63 3.87,-0.63 1.28,-0.01 2.49,0.29 3.62,0.89 1.13,0.61 2.08,1.57 2.85,2.91 0.16,0.28 0.27,0.49 0.33,0.64 0.39,0.8 0.61,1.67 0.65,2.6 0.05,0.94 -0.09,1.86 -0.39,2.78 -0.3,0.93 -0.78,1.79 -1.43,2.61 -0.65,0.81 -1.45,1.49 -2.4,2.04l-1.84 -3.18c0.99,-0.75 1.69,-1.61 2.09,-2.58 0.4,-0.96 0.3,-1.98 -0.31,-3.04 -0.52,-0.87 -1.27,-1.42 -2.24,-1.67 -0.97,-0.26 -2.05,-0.24 -3.23,0.05 -1.19,0.28 -2.34,0.75 -3.48,1.41 -1.12,0.68 -2.09,1.46 -2.9,2.34 -0.81,0.89 -1.36,1.8 -1.62,2.76 -0.27,0.95 -0.17,1.83 0.3,2.65 0.37,0.64 0.85,1.12 1.44,1.44 0.6,0.33 1.24,0.5 1.95,0.51 0.71,0.01 1.42,-0.12 2.12,-0.41l1.92 3.32c-0.79,0.39 -1.66,0.67 -2.61,0.83 -0.94,0.17 -1.92,0.16 -2.92,-0.01 -1,-0.17 -1.98,-0.57 -2.9,-1.21 -0.93,-0.64 -1.73,-1.54 -2.4,-2.71 -0.75,-1.3 -1.09,-2.59 -1.01,-3.85 0.08,-1.26 0.46,-2.45 1.14,-3.56 0.68,-1.12 1.53,-2.1 2.53,-2.99 1,-0.88 2.07,-1.64 3.19,-2.29zm3.27 25.68l21.33 -8.31 2.72 3.61 -13.74 18.39 -2.45 -3.25 2.75 -3.85 -3.86 -5.12 -4.31 1.77 -2.44 -3.24zm10.47 0.14l2.58 3.43 5.14 -6.59 -7.72 3.16zm8.19 22.44l13.22 -12.32 -3.72 -3.98 2.91 -2.71 9.86 10.57 -2.91 2.71 -3.57 -3.83 -13.22 12.32 -2.57 -2.76zm12.44 12.13l14.46 -16.64 2.89 2.51 -14.46 16.64 -2.89 -2.51zm15.89 -0.95c1.08,-1.36 2.33,-2.59 3.77,-3.66 1.44,-1.08 3.05,-1.73 4.83,-1.96 1.78,-0.23 3.56,0.28 5.34,1.52 1.21,0.85 2.11,1.99 2.7,3.44 0.58,1.44 0.71,3.14 0.37,5.07 -0.34,1.94 -1.23,4 -2.68,6.21 -0.9,1.28 -1.86,2.37 -2.91,3.28 -1.04,0.92 -2.15,1.61 -3.33,2.07 -1.19,0.47 -2.41,0.63 -3.68,0.49 -1.26,-0.14 -2.53,-0.66 -3.79,-1.54 -0.95,-0.67 -1.74,-1.5 -2.37,-2.49 -0.62,-0.99 -1.02,-2.13 -1.17,-3.41 -0.15,-1.28 0.01,-2.69 0.47,-4.21 0.46,-1.53 1.27,-3.12 2.45,-4.8zm11.08 -0.92c-0.79,-0.52 -1.68,-0.68 -2.68,-0.48 -1,0.2 -1.99,0.67 -3,1.42 -0.98,0.75 -1.86,1.64 -2.62,2.68 -0.71,1.06 -1.22,2.15 -1.53,3.26 -0.31,1.12 -0.34,2.18 -0.09,3.17 0.24,0.99 0.85,1.82 1.78,2.47 0.68,0.49 1.39,0.75 2.13,0.79 0.73,0.05 1.44,-0.08 2.15,-0.38 0.7,-0.31 1.38,-0.75 2.03,-1.33 0.64,-0.58 1.23,-1.24 1.76,-1.99 0.58,-0.83 1.04,-1.7 1.39,-2.6 0.35,-0.89 0.54,-1.78 0.6,-2.66 0.05,-0.89 -0.07,-1.7 -0.39,-2.46 -0.31,-0.76 -0.83,-1.39 -1.54,-1.89zm4.36 24.72l9.31 -19.97 3.46 1.61 0.35 16.64 6.31 -13.53 3.41 1.59 -9.32 19.98 -3.41 -1.59 -0.24 -16.85 -6.41 13.75 -3.46 -1.62zm35.62 13.65l5.34 -21.38 12.42 3.09 -1.02 4.09 -8.71 -2.17 -1.1 4.42 7.8 1.94 -0.97 3.92 -7.8 -1.95 -2.23 8.97 -3.71 -0.93zm20.95 -7c0.2,-1.73 0.61,-3.43 1.26,-5.1 0.65,-1.69 1.67,-3.08 3.06,-4.23 1.38,-1.14 3.16,-1.65 5.33,-1.54 1.48,0.08 2.85,0.57 4.11,1.49 1.27,0.91 2.27,2.28 3.01,4.1 0.74,1.82 1.08,4.05 1.02,6.69 -0.08,1.56 -0.32,3 -0.72,4.32 -0.41,1.33 -0.98,2.5 -1.74,3.52 -0.76,1.02 -1.71,1.81 -2.86,2.36 -1.15,0.55 -2.49,0.78 -4.03,0.7 -1.16,-0.06 -2.26,-0.35 -3.33,-0.86 -1.06,-0.51 -1.99,-1.26 -2.8,-2.28 -0.8,-1 -1.42,-2.28 -1.84,-3.82 -0.41,-1.54 -0.57,-3.33 -0.47,-5.37zm8.91 -6.65c-0.94,-0.02 -1.78,0.32 -2.53,1.02 -0.75,0.7 -1.35,1.63 -1.79,2.79 -0.44,1.15 -0.71,2.38 -0.8,3.67 -0.05,1.27 0.1,2.47 0.43,3.58 0.33,1.12 0.86,2.03 1.61,2.74 0.73,0.71 1.68,1.1 2.82,1.15 0.84,0.04 1.58,-0.1 2.22,-0.45 0.65,-0.35 1.19,-0.84 1.63,-1.47 0.44,-0.64 0.77,-1.37 1.02,-2.21 0.24,-0.83 0.39,-1.7 0.43,-2.61 0.06,-1.02 -0.01,-1.99 -0.19,-2.94 -0.18,-0.94 -0.49,-1.8 -0.9,-2.58 -0.42,-0.78 -0.96,-1.41 -1.63,-1.88 -0.67,-0.49 -1.44,-0.75 -2.3,-0.79zm17.1 17.9l-2.3 -21.92 10.18 -1.07c0.7,-0.07 1.35,0.01 1.98,0.26 0.62,0.24 1.16,0.61 1.64,1.09 0.47,0.49 0.86,1.06 1.15,1.73 0.3,0.67 0.49,1.38 0.56,2.15 0.11,1.07 -0.02,2.11 -0.4,3.15 -0.38,1.04 -1.01,1.94 -1.89,2.72 0.28,0.06 0.57,0.2 0.89,0.41 0.31,0.22 0.6,0.52 0.85,0.91 0.25,0.38 0.4,0.82 0.45,1.33l0.73 4.89c0.05,0.46 0.18,0.85 0.38,1.17 0.2,0.31 0.37,0.47 0.51,0.45l0.12 1.17 -3.99 0.42c-0.56,-1.23 -0.96,-2.72 -1.22,-4.48 -0.01,-0.43 -0.05,-1.04 -0.12,-1.82 -0.07,-0.63 -0.18,-1.1 -0.32,-1.41 -0.14,-0.3 -0.41,-0.51 -0.81,-0.62 -0.38,-0.1 -0.98,-0.12 -1.76,-0.03l-3.75 0.39 0.92 8.71 -3.81 0.4zm2.46 -13.15l4.86 -0.51c0.77,-0.08 1.33,-0.43 1.71,-1.05 0.37,-0.62 0.52,-1.3 0.45,-2.02 -0.08,-0.71 -0.36,-1.3 -0.86,-1.77 -0.49,-0.47 -1.14,-0.66 -1.94,-0.58l-4.79 0.51 0.56 5.42zm34.54 5.48l-8.26 -20.44 3.54 -1.43 6.74 16.67 8.12 -3.28 1.52 3.77 -11.67 4.71zm19.5 -8.78l-10.35 -19.46 3.37 -1.8 10.35 19.46 -3.37 1.79zm11.89 -6.31l-12.64 -18.05 6.83 -4.78c0.98,-0.68 1.99,-1.02 3.03,-1.04 1.04,-0.01 2.03,0.25 2.94,0.79 0.91,0.54 1.67,1.26 2.3,2.15 0.49,0.69 0.83,1.43 1.03,2.23 0.2,0.79 0.24,1.56 0.09,2.29 0.98,0.1 1.9,0.43 2.75,0.96 0.84,0.52 1.56,1.21 2.16,2.07 0.6,0.87 0.98,1.82 1.13,2.87 0.14,1.05 -0.01,2.07 -0.47,3.08 -0.45,1 -1.22,1.9 -2.32,2.66l-6.83 4.78zm0.74 -5.18l4.09 -2.87c0.6,-0.42 0.91,-0.97 0.94,-1.66 0.03,-0.68 -0.18,-1.33 -0.62,-1.96 -0.41,-0.6 -0.94,-0.99 -1.57,-1.18 -0.63,-0.19 -1.25,-0.07 -1.86,0.37l-4.09 2.86 3.1 4.44zm-5.3 -7.57l3.69 -2.59c0.58,-0.41 0.88,-0.92 0.92,-1.55 0.04,-0.63 -0.14,-1.23 -0.54,-1.8 -0.4,-0.57 -0.9,-0.94 -1.49,-1.11 -0.6,-0.16 -1.18,-0.05 -1.75,0.36l-3.7 2.59 2.87 4.1zm24.35 -1.99l-14.46 -16.63 10.02 -8.71 2.61 3 -6.98 6.06 2.99 3.43 6.43 -5.59 2.66 3.07 -6.43 5.59 3.54 4.07 7.34 -6.39 2.66 3.07 -10.38 9.02zm16.36 -15.38l-16.89 -14.16 6.58 -7.85c0.45,-0.54 0.98,-0.93 1.59,-1.18 0.62,-0.26 1.27,-0.38 1.94,-0.36 0.68,0.03 1.35,0.16 2.03,0.44 0.68,0.28 1.31,0.66 1.9,1.15 0.82,0.69 1.45,1.54 1.9,2.54 0.45,1.01 0.62,2.09 0.53,3.27 0.24,-0.15 0.55,-0.26 0.93,-0.31 0.37,-0.07 0.79,-0.04 1.23,0.06 0.45,0.1 0.86,0.31 1.25,0.64l3.92 3.01c0.35,0.3 0.72,0.5 1.08,0.58 0.37,0.09 0.6,0.07 0.69,-0.03l0.9 0.75 -2.58 3.07c-1.25,-0.49 -2.59,-1.28 -3.98,-2.37 -0.31,-0.31 -0.77,-0.72 -1.36,-1.22 -0.49,-0.41 -0.89,-0.67 -1.21,-0.79 -0.31,-0.12 -0.66,-0.09 -1,0.11 -0.35,0.19 -0.79,0.59 -1.3,1.19l-2.41 2.89 6.71 5.63 -2.46 2.93zm-7.37 -11.18l3.14 -3.73c0.5,-0.59 0.66,-1.23 0.51,-1.95 -0.16,-0.7 -0.52,-1.29 -1.08,-1.77 -0.55,-0.46 -1.15,-0.68 -1.84,-0.67 -0.68,0.01 -1.27,0.31 -1.78,0.93l-3.1 3.69 4.17 3.5zm22.19 -6.48l-14.5 -17.73 2.59 -3.7 21.73 7.39 -2.33 3.33 -4.51 -1.42 -3.67 5.24 3.02 3.56 -2.34 3.33zm-3.1 -10l2.47 -3.52 -7.86 -2.86 5.39 6.39zm19.16 -14.59l-15.8 -8.76 -2.64 4.76 -3.47 -1.92 7 -12.64 3.48 1.92 -2.54 4.58 15.8 8.76 -1.82 3.29zm7.97 -15.28l-19.98 -9.32 1.61 -3.46 19.98 9.31 -1.61 3.47zm-5.09 -15.23c-1.59,-0.68 -3.1,-1.58 -4.51,-2.7 -1.42,-1.11 -2.46,-2.49 -3.14,-4.15 -0.69,-1.66 -0.66,-3.5 0.09,-5.55 0.51,-1.39 1.38,-2.56 2.62,-3.5 1.25,-0.94 2.85,-1.5 4.81,-1.67 1.95,-0.17 4.18,0.16 6.68,0.98 1.47,0.53 2.78,1.18 3.93,1.95 1.15,0.77 2.1,1.67 2.86,2.69 0.76,1.03 1.23,2.17 1.42,3.43 0.19,1.26 0.02,2.61 -0.51,4.06 -0.4,1.09 -1,2.07 -1.8,2.93 -0.79,0.87 -1.79,1.54 -2.99,2.01 -1.2,0.48 -2.6,0.69 -4.19,0.64 -1.59,-0.05 -3.35,-0.43 -5.27,-1.12zm-3.75 -10.47c-0.3,0.9 -0.22,1.8 0.23,2.72 0.45,0.91 1.16,1.75 2.15,2.52 0.97,0.76 2.07,1.38 3.27,1.84 1.2,0.41 2.38,0.62 3.54,0.64 1.16,0.01 2.19,-0.24 3.08,-0.73 0.89,-0.5 1.54,-1.29 1.93,-2.36 0.28,-0.79 0.36,-1.55 0.21,-2.26 -0.14,-0.72 -0.45,-1.38 -0.93,-1.99 -0.49,-0.6 -1.09,-1.14 -1.82,-1.62 -0.72,-0.47 -1.52,-0.87 -2.38,-1.17 -0.95,-0.35 -1.91,-0.58 -2.87,-0.68 -0.95,-0.1 -1.86,-0.06 -2.72,0.11 -0.87,0.18 -1.63,0.51 -2.28,1.01 -0.66,0.5 -1.13,1.16 -1.42,1.97zm23.18 -10.51l-21.18 -6.08 1.05 -3.67 16.38 -2.94 -14.35 -4.12 1.04 -3.61 21.18 6.07 -1.04 3.62 -16.6 2.88 14.58 4.18 -1.06 3.67z"/>
   <path class="fil5" d="M123.33 387.11c0.06,5.4 -1.8,10.59 -1.14,16.05 0.44,3.65 2.78,10.58 6.67,9.71 2.1,-0.47 4.08,-1.49 6.56,-2 7.49,-1.56 14.32,0.33 21.01,3.38 24.09,10.95 25.57,16.49 49.15,2.99 8.33,-4.76 18.98,-10.49 24.06,-18.48 5.05,-7.94 -2.53,-8.92 -11.84,-3.62 -6.81,3.88 -14.29,8.98 -22.01,11.97 -5.52,2.13 -9.03,1.19 -14.33,-0.44 -2.33,-0.72 -11.72,-3.03 -12.88,-3.89 6.75,-3.33 19.81,6.02 31.15,-1.34 4.59,-2.99 6.97,-8.04 1.66,-10.56 -2.83,-1.35 -13.12,-0.28 -17.44,-0.5 -7.73,-0.37 -8.86,-1.17 -14.31,-4.47 -11.63,-7.05 -19.64,-3.79 -29.69,-0.72 -8.04,2.46 -12.04,1.12 -16.62,1.92zm78.22 0.67c1.39,1.16 0.83,-0.3 4.03,2.55 2.74,-0.81 6.79,-5.11 12.38,-6.29 -2.45,-5.72 -14.07,2.4 -16.41,3.74zm5.62 5c0.6,4.02 0.24,2.93 -1.29,5.81 2.24,-0.72 10.39,-6.36 14.54,-8.03 1.5,-0.6 4.74,-1.25 5.69,-1.81 -0.2,-2.25 -1.66,-2.87 -4.04,-2.71 -6.77,0.47 -11.39,5.62 -14.89,6.74z"/>
   <path class="fil8" d="M180 383.27c-2.13,-5.62 6.92,-10.8 -2.19,-22.8 -2.96,-3.9 -9.54,-7.71 -14.79,-15.26 -4.33,-6.22 -5.83,-15.49 -5.98,-24.14 -0.09,-5.53 1.03,-23.44 3.46,-27.08l6.93 9.15c2.49,3.18 4.72,5.87 7.47,9.03 5.22,6 10.37,11.94 13.12,19.47 5.77,15.84 2.6,27.37 -1.63,41.57 -0.59,2.01 -1.39,3.89 -2.24,5.78 -0.87,1.94 -1.61,4.32 -4.15,4.29zm11.72 -18.54c1.35,-5.16 3.1,-8.67 4,-14.7 1.77,-11.83 -0.58,-19.92 -7.45,-29.24 -1.24,-1.69 -2.8,-3.92 -4.06,-5.24 -0.89,-0.93 -4.01,-3.92 -4.59,-4.93 23.92,-0.15 37.64,19.22 24.14,40.58 -1.92,3.03 -8.97,12.06 -12.04,13.54z"/>
   <polygon class="fil1" points="75.56,142.18 81.06,142.18 81.06,112.72 75.56,112.72 "/>
   <path class="fil1" d="M143.15 142.18l6.05 0 -13.19 -29.45 -6.05 0 -13.2 29.45 6.01 0 2.52 -5.55 15.38 0 2.48 5.55zm-4.71 -10.72l-10.93 0 5.46 -12.55 5.47 12.55z"/>
   <path class="fil1" d="M211.3 141.8l-8.91 -10.04c5.59,-1.13 7.44,-5.21 7.44,-9.26 0,-5.11 -3.66,-9.73 -10.59,-9.77 -4.67,0.05 -9.33,0 -13.99,0l0 29.45 5.55 0 0 -9.83 5.34 0 8.56 9.83 6.6 0 0 -0.38zm-12.06 -23.9c3.49,0 5.05,2.36 5.05,4.72 0,2.37 -1.52,4.73 -5.05,4.73l-8.45 0 0 -9.45 8.45 0z"/>
   <path class="fil1" d="M269.02 136.72l-16.51 0 0 -6.64 15.93 0 0 -5.17 -15.93 0 0 -6.81 16.51 0 0 -5.37 -22.02 0c0,9.82 0,19.66 0,29.45l22.02 0 0 -5.46z"/>
  </g>
  <path class="fil9" d="M3182.16 524.54l482.37 23.82 -0.03 0.24c-539.48,26.74 -789.97,26.66 -1329.36,0.01l-0.02 -0.3 481.71 -23.78 10.21 0 0.58 -2.8 -9.49 -2.89 -445.75 -160.85 463.67 115.34 11.19 3.48 1.76 -2.47 -7.74 -5.45 -352.98 -278.43 388.38 240.74 9.17 6.43c0.88,-0.6 1.76,-1.21 2.62,-1.81l-5.07 -7.34 -217.55 -362.3 266.32 337.1 5.98 8.58 3.22 -1.03 -1.8 -8.28 -55.94 -402.54 112.03 392.78 2.15 9.76 3.41 0 1.73 -8.29 112.47 -394.25 -55.66 401.07 -2.08 9.78 3.21 1.01 5.09 -7.31 267.24 -338.36 -216.62 360.98 -6.02 8.62c0.88,0.6 1.77,1.23 2.64,1.8l7.75 -5.41 389.8 -241.72 -351.57 277.46 -9.15 6.35 1.77 2.49 9.49 -2.89 465.33 -115.87 -444.05 160.35 -11.15 3.4c0.21,0.93 0.47,1.84 0.57,2.8l10.15 0z"/>
  <path class="fil1" d="M4070.06 256.48c-7.8,4.04 -12.85,7.75 -15.13,11.12 -3.41,5.23 -5.13,13.09 -5.13,23.59l0 6.7 0 90.62 -17.37 0 -48.54 -94.24 0 55.87 0 4.63 1.12 14.81c1.36,6.84 4.49,11.93 9.37,15.23l0.81 0.7c-9.37,-3.16 -14.04,-13.27 -14.04,-30.36l0 -9.65 0 -56.29 -5.48 -10.81 0 59.28c0,18.81 1.23,31.09 3.69,36.92 2.45,5.86 8.21,10.11 17.27,12.77l8.95 9.55 -55.7 0 -1.65 -2.74 51.49 0 -5.34 -5.68 -47.91 0c8.39,-3.02 13.93,-7.05 16.67,-12.15 2.74,-5.05 4.11,-13.79 4.11,-26.11l0 -82.33 -13.69 -11.44 52.01 0 -14.6 9.79 49.76 97.14 0 -12.36 -42.68 -83.14 14.39 -9.79 1.96 1.96 -12.74 8.64 39.06 76.79 0 -48.04 0 -5.44c0,-11.97 -0.98,-19.94 -2.91,-23.97 -1.96,-4 -6.77,-7.86 -14.46,-11.58l46.68 0zm3.61 7.61l-1.86 3.09c-5.3,1.23 -8.88,3.54 -10.74,6.84 -1.9,3.34 -2.85,8.95 -2.85,16.85l0 106.06 -22.07 0 -1.34 -2.74 20.67 0 0 -102.27c0,-9.69 1.27,-16.43 3.75,-20.25 2.49,-3.83 7.3,-6.35 14.42,-7.58zm100.76 -7.61l-10.7 12.14 16.88 44.92 4.11 -2.28 -15.23 -40.58 10.91 -12.56 2.67 1.12 -10.39 12.07 14.38 38.39c0.85,-0.6 1.33,-0.98 1.44,-1.12l3.4 -2.87c2.07,-1.65 3.37,-2.81 3.9,-3.51 1.79,7.83 4.53,14.81 8.25,20.99 -2,-0.1 -3.44,-0.18 -4.32,-0.18 -6.53,0 -11.3,1.02 -14.29,3.06l18.6 50.5 15.4 11.94 -51.9 0 14.17 -11.94 -11.41 -30.04c-7.54,7.62 -13.33,14.85 -17.37,21.73l-2.38 -0.63c4.07,-6.71 10.07,-14.21 18.11,-22.54l0.81 -1.02 -1.93 -4.53c-8.18,6.81 -14.92,14.67 -20.25,23.66l-1.86 -2.99c-3.58,-5.68 -8.14,-12.18 -13.69,-19.44l-1.02 -1.23c-5.44,11.72 -8.14,21.27 -8.14,28.61 0,4.32 0.74,7.97 2.25,10.95 1.47,2.99 5.09,7.97 10.81,14.96 0.45,0.63 1.23,1.57 2.28,2.87l-55.52 0 -2.07 -2.74 52.36 0 -1.78 -2.18c-4.53,-5.47 -7.51,-9.75 -8.95,-12.81 -1.4,-3.05 -2.11,-6.63 -2.11,-10.74 0,-6.98 2.88,-17.41 8.6,-31.27l-4.49 -4.74c-0.91,2.17 -2.03,5.4 -3.41,9.65l-3.41 10.49c-1.86,5.61 -2.77,10.28 -2.77,14 0,3.83 0.67,7.02 1.96,9.55 1.3,2.57 4.04,6 8.22,10.39 0.42,0.42 1.02,1.09 1.86,1.97l-51.41 0c9.79,-5.09 17.58,-11.9 23.3,-20.46 5.72,-8.56 11.37,-21.79 16.98,-39.7l0.42 -1.44c-3.62,-3.09 -8.88,-4.99 -15.72,-5.68 3.76,-5.62 6.67,-11.48 8.74,-17.59 0.94,0.91 1.54,1.44 1.75,1.65l4.63 4.31c1.55,1.51 3.44,3.06 5.65,4.63l1.82 -4.53 -1.23 -1.02c-3.41,-3.02 -6.28,-5.44 -8.63,-7.3l-0.91 -0.73 1.65 -2.25c3.62,2.39 7.12,5.16 10.49,8.32l13.96 -38.5 -10.91 -11.75 47.41 0zm-25.41 33.06l-11.3 29.87c0.63,0.67 0.95,1.09 1.02,1.23l4.25 4.74c2.25,2.45 5.13,6.28 8.64,11.51l1.02 1.54c2.95,-3.72 6.46,-7.37 10.49,-11.02l-14.11 -37.87zm-4.59 -11.93l-16.35 43.24c5.19,5.34 9.69,10.63 13.47,15.83l4.71 6.6c0.07,0.07 0.42,0.49 1.05,1.33 0.6,-0.63 0.95,-1.02 1.02,-1.15l1.44 -1.72c0.21,-0.28 0.59,-0.74 1.12,-1.33 -4.81,-7.41 -10.39,-14.11 -16.74,-20.08l13.16 -34.77 -2.87 -7.93zm60.43 29.55c1.51,6.18 5.3,14.63 11.3,25.41 -1.48,-0.21 -2.36,-0.31 -2.57,-0.31l-8.31 -0.7c-3.75,-0.35 -6.53,-0.52 -8.22,-0.52 -0.28,0 -0.98,0.03 -2.07,0.1l17.16 45.59 22.95 20.21 -59.55 0 -1.93 -2.74 54.57 0 -18.49 -16.35 -18.32 -48.47c2.35,-0.6 5.02,-0.87 8.04,-0.87 3.68,0 7.82,0.28 12.35,0.87l-1.26 -2.24c-4.39,-8.1 -7.34,-15.41 -8.85,-21.93l3.2 1.96zm128.93 -50.68l-10.7 12.14 16.89 44.92 4.1 -2.28 -15.23 -40.58 10.92 -12.56 2.66 1.12 -10.39 12.07 14.39 38.39c0.84,-0.6 1.33,-0.98 1.44,-1.12l3.41 -2.87c2.07,-1.65 3.37,-2.81 3.89,-3.51 1.79,7.83 4.53,14.81 8.25,20.99 -2,-0.1 -3.44,-0.18 -4.32,-0.18 -6.52,0 -11.3,1.02 -14.28,3.06l18.6 50.5 15.41 11.94 -51.91 0 14.18 -11.94 -11.41 -30.04c-7.55,7.62 -13.33,14.85 -17.37,21.73l-2.39 -0.63c4.07,-6.71 10.07,-14.21 18.11,-22.54l0.81 -1.02 -1.93 -4.53c-8.18,6.81 -14.91,14.67 -20.25,23.66l-1.86 -2.99c-3.58,-5.68 -8.14,-12.18 -13.68,-19.44l-1.02 -1.23c-5.43,11.72 -8.14,21.27 -8.14,28.61 0,4.32 0.73,7.97 2.24,10.95 1.48,2.99 5.09,7.97 10.81,14.96 0.46,0.63 1.23,1.57 2.28,2.87l-55.52 0 -2.07 -2.74 52.36 0 -1.79 -2.18c-4.53,-5.47 -7.51,-9.75 -8.94,-12.81 -1.4,-3.05 -2.11,-6.63 -2.11,-10.74 0,-6.98 2.87,-17.41 8.6,-31.27l-4.5 -4.74c-0.91,2.17 -2.03,5.4 -3.4,9.65l-3.41 10.49c-1.86,5.61 -2.78,10.28 -2.78,14 0,3.83 0.67,7.02 1.97,9.55 1.3,2.57 4.04,6 8.21,10.39 0.42,0.42 1.02,1.09 1.86,1.97l-51.42 0c9.79,-5.09 17.58,-11.9 23.3,-20.46 5.72,-8.56 11.37,-21.79 16.98,-39.7l0.43 -1.44c-3.62,-3.09 -8.88,-4.99 -15.72,-5.68 3.75,-5.62 6.67,-11.48 8.73,-17.59 0.95,0.91 1.55,1.44 1.76,1.65l4.63 4.31c1.54,1.51 3.44,3.06 5.65,4.63l1.82 -4.53 -1.23 -1.02c-3.41,-3.02 -6.29,-5.44 -8.64,-7.3l-0.91 -0.73 1.65 -2.25c3.62,2.39 7.13,5.16 10.49,8.32l13.97 -38.5 -10.91 -11.75 47.41 0zm-25.4 33.06l-11.3 29.87c0.63,0.67 0.94,1.09 1.02,1.23l4.25 4.74c2.24,2.45 5.13,6.28 8.63,11.51l1.02 1.54c2.95,-3.72 6.46,-7.37 10.49,-11.02l-14.11 -37.87zm-4.6 -11.93l-16.35 43.24c5.2,5.34 9.69,10.63 13.48,15.83l4.7 6.6c0.07,0.07 0.42,0.49 1.06,1.33 0.6,-0.63 0.94,-1.02 1.02,-1.15l1.44 -1.72c0.21,-0.28 0.6,-0.74 1.12,-1.33 -4.81,-7.41 -10.39,-14.11 -16.74,-20.08l13.16 -34.77 -2.88 -7.93zm60.43 29.55c1.51,6.18 5.3,14.63 11.3,25.41 -1.48,-0.21 -2.35,-0.31 -2.56,-0.31l-8.32 -0.7c-3.75,-0.35 -6.52,-0.52 -8.21,-0.52 -0.28,0 -0.98,0.03 -2.07,0.1l17.16 45.59 22.96 20.21 -59.55 0 -1.93 -2.74 54.57 0 -18.49 -16.35 -18.32 -48.47c2.35,-0.6 5.01,-0.87 8.03,-0.87 3.69,0 7.83,0.28 12.36,0.87l-1.27 -2.24c-4.38,-8.1 -7.34,-15.41 -8.85,-21.93l3.2 1.96zm141.78 -47.49l-1.12 1.97c-6.18,10.77 -11.51,21.54 -16.04,32.32l-0.91 2.39 -1.33 -0.73c-1.61,-10.39 -5.26,-18.64 -11.06,-24.75 -5.76,-6.07 -12.74,-9.12 -20.91,-9.12 -8.74,0 -16.01,3.79 -21.87,11.41 -7.33,9.44 -11.02,25.48 -11.02,48.08 0,19.44 3.37,34.67 10.15,45.69 6.77,11.02 16.18,16.52 28.21,16.52 9.62,0 17.31,-3.19 23.03,-9.58 5.76,-6.39 9.15,-15.51 10.28,-27.37 0.25,-2.87 1.44,-4.32 3.48,-4.32 2.7,0 4.04,2.21 4.04,6.67 0,6.63 -1.51,13.51 -4.53,20.64 -6.39,15.05 -19.55,22.6 -39.55,22.6 -17.83,0 -32.01,-6.25 -42.5,-18.78 -10.49,-12.53 -15.76,-29.45 -15.76,-50.79 0,-19.65 5.43,-36.15 16.35,-49.45 10.91,-13.3 24.46,-19.97 40.67,-19.97 7.65,0 16.43,1.9 26.22,5.65 5.16,2 9.4,2.99 12.77,2.99 3.62,0 6.88,-1.02 9.76,-3.02l1.65 0.94zm-29.79 17.83c-6.21,-5.02 -12.11,-7.55 -17.62,-7.55 -17.69,0 -26.53,16.95 -26.53,50.85 0,15.41 2.04,28.25 6.11,38.53 4.11,10.25 9.86,16.89 17.27,19.9l0 1.02c-8.07,-1.65 -14.5,-7.86 -19.3,-18.67 -4.81,-10.78 -7.23,-24.46 -7.23,-41 0,-35.44 9.72,-53.17 29.13,-53.17 6.56,0 12.63,2.91 18.18,8.74l0 1.33zm33.51 70.68c-1.12,16.98 -5.86,29.94 -14.25,38.82 -8.39,8.88 -20.15,13.3 -35.2,13.3 -11.48,0 -22.11,-3.5 -32.01,-10.56l0 -0.85c8.77,5.79 19.37,8.67 31.8,8.67 13.54,0 24.64,-4.35 33.2,-13.05 4.17,-4.25 7.26,-9.02 9.27,-14.32 1.96,-5.26 3.3,-12.25 4,-20.99l0.21 -2.35 2.98 1.33zm3.79 -83.49l-1.12 1.96c-7.48,12.78 -13.45,24.39 -17.9,34.89l-2.77 -1.33 1.12 -2.56c3.44,-7.23 6.46,-13.2 9.06,-17.94l8.21 -14.6 1.05 -1.86 2.36 1.44z"/>
  <path class="fil1" d="M3983.17 484.16l-11.4 0 -3.19 -9.57 -21.2 0 -3.2 9.57 -11.32 0 18.62 -53.2 12.99 0 18.7 53.2zm-25.15 -41.11l-7.3 21.73 14.59 0 -7.3 -21.73z"/>
  <path id="_1" class="fil1" d="M4011.68 485.22c-7.95,0 -14.57,-2.66 -19.84,-7.98 -5.22,-5.27 -7.83,-11.83 -7.83,-19.68 0,-7.91 2.61,-14.47 7.83,-19.69 5.27,-5.32 11.88,-7.98 19.84,-7.98 4.81,0 9.26,1.13 13.33,3.39 4.08,2.25 7.26,5.3 9.54,9.15l-9.05 5.24c-1.31,-2.38 -3.19,-4.24 -5.62,-5.58 -2.43,-1.35 -5.16,-2.01 -8.2,-2.01 -5.17,0 -9.35,1.62 -12.54,4.86 -3.14,3.29 -4.71,7.5 -4.71,12.62 0,5.07 1.57,9.25 4.71,12.54 3.19,3.24 7.37,4.86 12.54,4.86 3.04,0 5.79,-0.68 8.24,-2.01 2.46,-1.35 4.32,-3.18 5.58,-5.51l9.05 5.24c-2.28,3.85 -5.46,6.9 -9.54,9.16 -4.08,2.25 -8.52,3.38 -13.33,3.38z"/>
  <path id="_2" class="fil1" d="M4065.72 485.22c-7.95,0 -14.57,-2.66 -19.84,-7.98 -5.22,-5.27 -7.83,-11.83 -7.83,-19.68 0,-7.91 2.61,-14.47 7.83,-19.69 5.27,-5.32 11.88,-7.98 19.84,-7.98 4.81,0 9.26,1.13 13.33,3.39 4.08,2.25 7.26,5.3 9.54,9.15l-9.05 5.24c-1.31,-2.38 -3.19,-4.24 -5.62,-5.58 -2.43,-1.35 -5.16,-2.01 -8.2,-2.01 -5.17,0 -9.35,1.62 -12.54,4.86 -3.14,3.29 -4.71,7.5 -4.71,12.62 0,5.07 1.57,9.25 4.71,12.54 3.19,3.24 7.37,4.86 12.54,4.86 3.04,0 5.79,-0.68 8.24,-2.01 2.46,-1.35 4.32,-3.18 5.58,-5.51l9.05 5.24c-2.28,3.85 -5.46,6.9 -9.54,9.16 -4.08,2.25 -8.52,3.38 -13.33,3.38z"/>
  <path id="_3" class="fil1" d="M4135.55 484.16l-11.32 0 -10.72 -18.47 -7.98 0 0 18.47 -10.49 0 0 -53.2 21.28 0c4.92,0 9.1,1.73 12.54,5.17 3.45,3.45 5.17,7.6 5.17,12.46 0,3.29 -0.94,6.35 -2.82,9.16 -1.87,2.81 -4.36,4.92 -7.45,6.35l11.78 20.06zm-19.23 -43.4l-10.79 0 0 15.74 10.79 0c1.98,0 3.67,-0.77 5.09,-2.32 1.42,-1.54 2.13,-3.41 2.13,-5.58 0,-2.18 -0.71,-4.03 -2.13,-5.55 -1.42,-1.52 -3.11,-2.28 -5.09,-2.28z"/>
  <polygon id="_4" class="fil1" points="4152.2,462.2 4152.2,474.13 4174.62,474.13 4174.62,484.16 4141.72,484.16 4141.72,430.96 4174.24,430.96 4174.24,440.99 4152.2,440.99 4152.2,452.32 4172.34,452.32 4172.34,462.2 "/>
  <path id="_5" class="fil1" d="M4182 430.96l21.12 0c7.3,0 13.38,2.56 18.24,7.68 4.92,5.07 7.37,11.37 7.37,18.93 0,7.55 -2.45,13.85 -7.37,18.92 -4.86,5.12 -10.95,7.68 -18.24,7.68l-21.12 0 0 -53.2zm10.49 43.17l10.64 0c4.61,0 8.36,-1.52 11.25,-4.56 2.89,-3.14 4.33,-7.14 4.33,-12 0,-4.92 -1.44,-8.89 -4.33,-11.94 -2.89,-3.09 -6.63,-4.63 -11.25,-4.63l-10.64 0 0 33.13z"/>
  <polygon id="_6" class="fil1" points="4236.18,484.16 4236.18,430.96 4246.67,430.96 4246.67,484.16 "/>
  <polygon id="_7" class="fil1" points="4252.6,430.96 4291.74,430.96 4291.74,440.99 4277.38,440.99 4277.38,484.16 4266.89,484.16 4266.89,440.99 4252.6,440.99 "/>
  <path id="_8" class="fil1" d="M4339.31 484.16l-11.4 0 -3.19 -9.57 -21.2 0 -3.2 9.57 -11.32 0 18.62 -53.2 12.99 0 18.7 53.2zm-25.15 -41.11l-7.3 21.73 14.59 0 -7.3 -21.73z"/>
  <polygon id="_9" class="fil1" points="4336.65,430.96 4375.79,430.96 4375.79,440.99 4361.43,440.99 4361.43,484.16 4350.94,484.16 4350.94,440.99 4336.65,440.99 "/>
  <polygon id="_10" class="fil1" points="4381.65,484.16 4381.65,430.96 4392.13,430.96 4392.13,484.16 "/>
  <path id="_11" class="fil1" d="M4446.78 477.24c-5.37,5.32 -11.9,7.98 -19.61,7.98 -7.7,0 -14.23,-2.66 -19.61,-7.98 -5.32,-5.42 -7.98,-11.98 -7.98,-19.68 0,-7.76 2.66,-14.29 7.98,-19.61 5.37,-5.37 11.91,-8.06 19.61,-8.06 7.7,0 14.24,2.68 19.61,8.06 5.37,5.32 8.06,11.85 8.06,19.61 0,7.75 -2.69,14.31 -8.06,19.68zm-31.84 -7.14c3.24,3.24 7.32,4.86 12.23,4.86 4.92,0 8.99,-1.62 12.24,-4.86 3.29,-3.29 4.93,-7.47 4.93,-12.54 0,-5.07 -1.65,-9.25 -4.93,-12.54 -3.29,-3.29 -7.38,-4.94 -12.24,-4.94 -4.86,0 -8.94,1.65 -12.23,4.94 -3.29,3.29 -4.94,7.47 -4.94,12.54 0,5.07 1.65,9.25 4.94,12.54z"/>
  <polygon id="_12" class="fil1" points="4492.99,463.41 4492.99,430.96 4503.47,430.96 4503.47,484.16 4495.49,484.16 4472.69,451.63 4472.69,484.16 4462.21,484.16 4462.21,430.96 4470.19,430.96 "/>
  <path class="fil10" d="M4785.5 465.32l-42.94 0 -17 -44.82 -78.96 0 -16.35 44.82 -42.16 0 76.44 -196.86 42.11 0 78.86 196.86zm-72.86 -78.08l-27.36 -72.86 -26.58 72.86 53.94 0z"/>
  <line class="fil11 str0" x1="4555.51" y1="256.48" x2="4555.51" y2= "475.06" />
  <polygon class="fil10" points="4787.71,333.86 4787.71,301.64 4755.66,301.64 4755.66,288.17 4787.71,288.17 4787.71,256.11 4801.35,256.11 4801.35,288.17 4833.4,288.17 4833.4,301.64 4801.35,301.64 4801.35,333.86 "/>
  <polygon class="fil10" points="4874.78,331.5 4874.78,299.29 4842.73,299.29 4842.73,285.81 4874.78,285.81 4874.78,253.76 4888.43,253.76 4888.43,285.81 4920.48,285.81 4920.48,299.29 4888.43,299.29 4888.43,331.5 "/>
  <path class="fil1" d="M4852.74 467.94l-0.96 -7.66c-1.31,3.33 -3.13,5.72 -5.44,7.17 -2.3,1.43 -5.46,2.16 -9.5,2.16 -7.3,0 -12.42,-2.76 -15.38,-8.27 -2.98,-5.51 -4.46,-15.62 -4.46,-30.32 0,-6.86 0.35,-12.37 1.06,-16.5 0.71,-4.15 1.82,-7.34 3.31,-9.61 1.8,-2.76 4.21,-4.82 7.19,-6.14 2.98,-1.33 6.69,-1.99 11.12,-1.99 7.46,0 12.97,1.76 16.52,5.29 3.53,3.53 5.3,9.01 5.3,16.46l0 1.76 -12.12 0 0 -0.73c0,-4.15 -0.77,-7.29 -2.33,-9.42 -1.54,-2.11 -3.85,-3.18 -6.92,-3.18 -3.78,0 -6.34,1.45 -7.72,4.33 -1.39,2.9 -2.09,10.57 -2.09,22.99 0,9.82 0.66,16.39 1.99,19.71 1.33,3.31 3.72,4.96 7.17,4.96 3.44,0 5.88,-1.17 7.34,-3.53 1.46,-2.34 2.19,-6.32 2.19,-11.94l0 -2.39 -8.97 0 0 -11.1 21.47 0 0 37.94 -8.77 0z"/>
  <path id="_1_0" class="fil1" d="M4885.38 427.79l7.45 0c3.78,0 6.39,-0.76 7.85,-2.27 1.46,-1.5 2.19,-4.19 2.19,-8.08 0,-3.47 -0.8,-5.89 -2.39,-7.28 -1.61,-1.39 -4.51,-2.09 -8.73,-2.09l-6.37 0 0 19.71zm-12.49 40.16l0 -69.58 23.21 0c7.02,0 12.09,1.42 15.18,4.27 3.1,2.85 4.64,7.49 4.64,13.94 0,4.52 -0.83,8.08 -2.5,10.69 -1.65,2.61 -4.1,4.13 -7.32,4.59 6.16,1.62 9.38,6.82 9.64,15.58 0,0.4 0,0.69 0,0.91l0.37 9.21c0.12,2.62 0.45,4.72 0.98,6.31 0.54,1.57 1.39,2.95 2.53,4.09l-15.39 0c-0.35,-1.17 -0.64,-2.55 -0.82,-4.13 -0.17,-1.59 -0.3,-3.83 -0.35,-6.71l-0.18 -7.28 0 -1.85c0,-4.03 -0.87,-6.81 -2.58,-8.31 -1.71,-1.5 -5.21,-2.25 -10.49,-2.25l-4.42 0 0 30.54 -12.49 0z"/>
  <path id="_2_1" class="fil1" d="M4939.8 440l11.02 0 -5.55 -29.18 -5.47 29.18zm-18.6 27.94l15.66 -69.58 17.38 0 15.81 69.58 -13.96 0 -3.43 -17.49 -14.9 0 -3.35 17.49 -13.23 0z"/>
  <path id="_3_2" class="fil1" d="M4989.56 457.67l5.74 0c2.93,0 4.98,-0.22 6.16,-0.63 1.17,-0.42 2.11,-1.14 2.81,-2.18 1.2,-1.8 2.07,-4.27 2.57,-7.42 0.51,-3.15 0.77,-8.19 0.77,-15.11 0,-6.74 -0.31,-11.64 -0.91,-14.71 -0.6,-3.08 -1.62,-5.4 -3.07,-6.96 -0.75,-0.79 -1.73,-1.34 -2.91,-1.65 -1.19,-0.33 -3.05,-0.48 -5.58,-0.48l-5.56 0 0 49.13zm-12.68 10.27l0 -69.58 20.82 0c4.24,0 7.62,0.35 10.15,1.08 2.51,0.73 4.58,1.9 6.2,3.53 2.45,2.38 4.16,5.39 5.18,9.01 1,3.64 1.52,9.27 1.52,16.93 0,9.87 -0.34,16.86 -1.04,20.94 -0.69,4.08 -1.88,7.55 -3.53,10.41 -1.59,2.85 -3.83,4.86 -6.66,5.98 -2.85,1.12 -7.79,1.69 -14.8,1.69l-17.83 0z"/>
  <polygon id="_4_3" class="fil1" points="5031.27,467.94 5031.27,398.36 5067.01,398.36 5067.01,409.93 5044.14,409.93 5044.14,426.03 5065.42,426.03 5065.42,437.04 5044.14,437.04 5044.14,456.19 5067.55,456.19 5067.55,467.94 "/>
  <g id="_2618498803504">
   <polygon class="fil12" points="5225.53,518.92 5197,473.57 5216.06,473.57 5232.99,501.63 5233.94,501.63 5250.27,473.57 5269.57,473.57 5241.52,518.92 5241.52,558.34 5225.53,558.34 "/>
   <polygon id="_1_4" class="fil12" points="5295.49,488.72 5295.49,508.38 5329.47,508.38 5329.47,523.53 5295.49,523.53 5295.49,543.18 5333.26,543.18 5333.26,558.34 5279.51,558.34 5279.51,473.57 5333.26,473.57 5333.26,488.72 "/>
   <path id="_2_5" class="fil12" d="M5372.68 473.57l18.23 0 31.85 84.77 -17.64 0 -6.98 -20.25 -32.67 0 -6.99 20.25 -17.64 0 31.85 -84.77zm20.25 49.84l-7.57 -21.19 -3.08 -10.3 -0.94 0 -3.08 10.3 -7.57 21.19 22.25 0z"/>
   <path id="_3_6" class="fil12" d="M5432.71 473.57l30.9 0c4.27,0 8.13,0.68 11.6,2.01 3.47,1.34 6.45,3.2 8.94,5.56 2.49,2.37 4.4,5.19 5.74,8.47 1.35,3.27 2.01,6.84 2.01,10.71 0,2.84 -0.47,5.51 -1.42,7.99 -0.94,2.49 -2.24,4.74 -3.9,6.75 -1.65,2.01 -3.59,3.79 -5.8,5.33 -2.21,1.54 -4.53,2.74 -6.98,3.61l-0.12 0.83 22.73 32.56 0 0.94 -18.35 0 -21.9 -31.85 -7.46 0 0 31.85 -15.98 0 0 -84.77zm30.78 38.24c3.64,0 6.61,-1.1 8.94,-3.31 2.33,-2.21 3.49,-5.01 3.49,-8.41 0,-1.5 -0.26,-2.96 -0.77,-4.38 -0.51,-1.42 -1.28,-2.68 -2.31,-3.79 -1.02,-1.11 -2.3,-1.99 -3.85,-2.66 -1.54,-0.68 -3.29,-1.01 -5.27,-1.01l-15.03 0 0 23.56 14.8 0z"/>
   <path id="_4_7" class="fil12" d="M5532.04 560.23c-3.64,0 -7.11,-0.52 -10.42,-1.54 -3.31,-1.02 -6.35,-2.57 -9.12,-4.61 -2.76,-2.05 -5.17,-4.56 -7.22,-7.52 -2.05,-2.96 -3.67,-6.41 -4.86,-10.36l15.03 -5.92c1.1,4.26 3.04,7.79 5.8,10.59 2.76,2.8 6.39,4.21 10.89,4.21 1.65,0 3.25,-0.22 4.79,-0.66 1.54,-0.43 2.92,-1.06 4.15,-1.89 1.22,-0.83 2.19,-1.88 2.9,-3.14 0.71,-1.27 1.06,-2.72 1.06,-4.38 0,-1.57 -0.28,-3 -0.83,-4.26 -0.55,-1.27 -1.48,-2.45 -2.78,-3.56 -1.31,-1.1 -3,-2.17 -5.09,-3.2 -2.09,-1.02 -4.67,-2.09 -7.76,-3.2l-5.2 -1.89c-2.29,-0.79 -4.6,-1.86 -6.93,-3.2 -2.32,-1.35 -4.44,-2.96 -6.33,-4.86 -1.89,-1.9 -3.45,-4.12 -4.67,-6.69 -1.23,-2.57 -1.84,-5.47 -1.84,-8.7 0,-3.31 0.65,-6.41 1.96,-9.29 1.3,-2.88 3.16,-5.41 5.56,-7.58 2.4,-2.17 5.28,-3.87 8.64,-5.09 3.36,-1.22 7.09,-1.83 11.19,-1.83 4.27,0 7.95,0.57 11.07,1.71 3.12,1.15 5.76,2.61 7.93,4.38 2.17,1.77 3.92,3.73 5.26,5.86 1.35,2.13 2.33,4.14 2.96,6.04l-14.08 5.92c-0.79,-2.37 -2.23,-4.5 -4.32,-6.39 -2.09,-1.9 -4.95,-2.84 -8.58,-2.84 -3.47,0 -6.35,0.81 -8.64,2.43 -2.28,1.61 -3.43,3.73 -3.43,6.33 0,2.52 1.11,4.67 3.31,6.45 2.21,1.77 5.72,3.49 10.54,5.15l5.33 1.77c3.39,1.19 6.49,2.55 9.29,4.09 2.8,1.54 5.21,3.37 7.22,5.5 2.01,2.13 3.56,4.56 4.62,7.28 1.06,2.72 1.59,5.86 1.59,9.41 0,4.42 -0.89,8.23 -2.66,11.43 -1.78,3.2 -4.05,5.82 -6.81,7.87 -2.76,2.05 -5.88,3.59 -9.35,4.61 -3.47,1.02 -6.86,1.54 -10.18,1.54z"/>
   <path class="fil13" d="M5440.23 264.13c38.61,0 71.76,23.43 86.01,56.84l-54.96 0c-8.38,-7.11 -19.21,-11.39 -31.05,-11.39 -15.24,0 -28.84,7.1 -37.62,18.18l-32.6 0c11.16,-12.81 19.75,-27.78 24.15,-44.36 0.7,-2.68 1.29,-5.38 1.79,-8.11l0.1 -0.07 0.73 -5.88c0.75,-6.77 0.77,-13.61 0.03,-20.45 -1.34,-12.41 -5.14,-24.31 -10.86,-35.4 -3.98,-7.76 -8.87,-14.9 -14.52,-21.3l0 -8.53 146.05 0 0 47.38 -105.52 0 -3.55 38.3 -0.3 0.48c10.02,-3.67 20.83,-5.68 32.12,-5.68zm86.55 128.82c-13.93,34.1 -47.43,58.14 -86.55,58.14 -16.22,0 -31.49,-4.13 -44.79,-11.41l0 -64.68c6.96,17.94 24.39,30.65 44.79,30.65 12.55,0 23.99,-4.81 32.54,-12.7l54.02 0z"/>
   <path class="fil13" d="M5379.64 404.29l-113.19 -0.17c1.35,-6.82 29.26,-34.51 35.75,-39.66 14.68,-11.66 28.42,-23.04 42.33,-34.75 28.4,-23.92 49.53,-64.43 26.76,-108.68 -40.08,-77.86 -169.33,-57.81 -172.13,44.41l23.43 -0.17c5.77,-0.24 8.71,0.71 22.19,-0.11 0.93,-1.69 0.19,0.35 1.02,-2.74 3.43,-12.71 3.72,-24.6 22.8,-36.06 30.87,-18.57 76.51,9.13 62.45,46.16 -9.34,24.6 -154.09,121.3 -130.13,177.65 0.18,0.19 153.19,3.5 179.47,0.73l-0.75 -46.61z"/>
   <path class="fil14" d="M5439.45 317.18l119.44 0 0 3.79 -119.44 0 0 -3.79zm119.44 75.77l0 4.04 -119.44 0 0 -4.04 119.44 0z"/>
   <path class="fil14" d="M5446.49 352.42c-0.02,-1.17 0.12,-2.2 0.43,-3.1 0.31,-0.9 0.75,-1.69 1.31,-2.39 0.56,-0.7 1.22,-1.3 1.97,-1.82 0.75,-0.52 1.54,-0.99 2.37,-1.39 0.83,-0.41 1.69,-0.77 2.55,-1.11 0.86,-0.33 1.69,-0.66 2.48,-0.98 0.68,-0.26 1.32,-0.52 1.9,-0.78 0.59,-0.27 1.11,-0.54 1.56,-0.83 0.45,-0.29 0.8,-0.6 1.06,-0.94 0.26,-0.34 0.39,-0.72 0.39,-1.12 0,-0.77 -0.35,-1.4 -1.06,-1.89 -0.71,-0.49 -1.71,-0.74 -3.01,-0.74 -1,0 -1.8,0.09 -2.4,0.28 -0.6,0.18 -1.06,0.44 -1.38,0.77 -0.32,0.33 -0.53,0.73 -0.62,1.19 -0.1,0.46 -0.16,0.96 -0.18,1.52l-6.7 0c0.03,-1.37 0.26,-2.55 0.72,-3.52 0.46,-0.98 1.17,-1.78 2.11,-2.41 0.95,-0.62 2.15,-1.08 3.59,-1.37 1.44,-0.3 3.16,-0.45 5.14,-0.45 1.47,0 2.87,0.14 4.18,0.4 1.31,0.27 2.46,0.68 3.45,1.22 0.98,0.54 1.76,1.23 2.34,2.05 0.58,0.82 0.87,1.78 0.87,2.87 0,1.02 -0.25,1.91 -0.75,2.64 -0.5,0.73 -1.15,1.38 -1.97,1.92 -0.81,0.54 -1.74,1.02 -2.77,1.44 -1.04,0.42 -2.09,0.82 -3.16,1.21 -1.29,0.47 -2.5,0.94 -3.66,1.44 -1.15,0.49 -2.06,1.08 -2.72,1.77l14.9 0 0 4.16 -22.94 0z"/>
   <path id="_1_8" class="fil14" d="M5470.97 342.04c0,-3.38 1.06,-5.98 3.17,-7.8 2.11,-1.82 5.37,-2.74 9.77,-2.74 4.4,0 7.65,0.92 9.74,2.74 2.09,1.82 3.14,4.42 3.14,7.8 0,1.62 -0.26,3.08 -0.78,4.38 -0.52,1.31 -1.31,2.41 -2.37,3.32 -1.06,0.91 -2.4,1.6 -4.01,2.08 -1.61,0.48 -3.52,0.72 -5.72,0.72 -4.4,0 -7.66,-0.93 -9.77,-2.79 -2.11,-1.86 -3.17,-4.43 -3.17,-7.72zm6.95 -0.03c0,0.87 0.09,1.7 0.27,2.47 0.18,0.77 0.5,1.44 0.94,2 0.45,0.56 1.06,1.01 1.83,1.33 0.77,0.32 1.74,0.49 2.91,0.49 1.11,0 2.05,-0.15 2.8,-0.45 0.76,-0.3 1.36,-0.72 1.82,-1.27 0.46,-0.54 0.79,-1.2 1,-1.98 0.2,-0.78 0.3,-1.64 0.3,-2.58 0,-0.88 -0.09,-1.7 -0.26,-2.47 -0.17,-0.77 -0.47,-1.43 -0.91,-1.99 -0.44,-0.55 -1.04,-0.99 -1.81,-1.31 -0.77,-0.32 -1.75,-0.48 -2.95,-0.48 -1.11,0 -2.05,0.14 -2.82,0.41 -0.77,0.28 -1.38,0.68 -1.84,1.22 -0.46,0.53 -0.79,1.19 -1,1.97 -0.2,0.78 -0.3,1.66 -0.3,2.64z"/>
   <path id="_2_9" class="fil14" d="M5498.46 342.04c0,-3.38 1.06,-5.98 3.17,-7.8 2.11,-1.82 5.37,-2.74 9.77,-2.74 4.4,0 7.65,0.92 9.74,2.74 2.09,1.82 3.14,4.42 3.14,7.8 0,1.62 -0.26,3.08 -0.78,4.38 -0.52,1.31 -1.31,2.41 -2.37,3.32 -1.06,0.91 -2.4,1.6 -4.01,2.08 -1.61,0.48 -3.52,0.72 -5.72,0.72 -4.4,0 -7.66,-0.93 -9.77,-2.79 -2.11,-1.86 -3.17,-4.43 -3.17,-7.72zm6.95 -0.03c0,0.87 0.09,1.7 0.27,2.47 0.18,0.77 0.5,1.44 0.94,2 0.45,0.56 1.06,1.01 1.83,1.33 0.77,0.32 1.74,0.49 2.91,0.49 1.11,0 2.05,-0.15 2.8,-0.45 0.76,-0.3 1.36,-0.72 1.82,-1.27 0.46,-0.54 0.79,-1.2 1,-1.98 0.2,-0.78 0.3,-1.64 0.3,-2.58 0,-0.88 -0.09,-1.7 -0.26,-2.47 -0.17,-0.77 -0.47,-1.43 -0.91,-1.99 -0.44,-0.55 -1.04,-0.99 -1.81,-1.31 -0.77,-0.32 -1.75,-0.48 -2.95,-0.48 -1.11,0 -2.05,0.14 -2.82,0.41 -0.77,0.28 -1.38,0.68 -1.84,1.22 -0.46,0.53 -0.79,1.19 -1,1.97 -0.2,0.78 -0.3,1.66 -0.3,2.64z"/>
   <path id="_3_10" class="fil14" d="M5525.95 342.04c0,-3.38 1.06,-5.98 3.17,-7.8 2.11,-1.82 5.37,-2.74 9.77,-2.74 4.4,0 7.65,0.92 9.74,2.74 2.09,1.82 3.14,4.42 3.14,7.8 0,1.62 -0.26,3.08 -0.78,4.38 -0.52,1.31 -1.31,2.41 -2.37,3.32 -1.06,0.91 -2.4,1.6 -4.01,2.08 -1.61,0.48 -3.52,0.72 -5.72,0.72 -4.4,0 -7.66,-0.93 -9.77,-2.79 -2.11,-1.86 -3.17,-4.43 -3.17,-7.72zm6.95 -0.03c0,0.87 0.09,1.7 0.27,2.47 0.18,0.77 0.5,1.44 0.94,2 0.45,0.56 1.06,1.01 1.83,1.33 0.77,0.32 1.74,0.49 2.91,0.49 1.11,0 2.05,-0.15 2.8,-0.45 0.76,-0.3 1.36,-0.72 1.82,-1.27 0.46,-0.54 0.79,-1.2 1,-1.98 0.2,-0.78 0.3,-1.64 0.3,-2.58 0,-0.88 -0.09,-1.7 -0.26,-2.47 -0.17,-0.77 -0.47,-1.43 -0.91,-1.99 -0.44,-0.55 -1.04,-0.99 -1.81,-1.31 -0.77,-0.32 -1.75,-0.48 -2.95,-0.48 -1.11,0 -2.05,0.14 -2.82,0.41 -0.77,0.28 -1.38,0.68 -1.84,1.22 -0.46,0.53 -0.79,1.19 -1,1.97 -0.2,0.78 -0.3,1.66 -0.3,2.64z"/>
   <path class="fil14" d="M5445.73 383.46c-0.02,-1.17 0.12,-2.2 0.43,-3.1 0.31,-0.9 0.75,-1.69 1.31,-2.39 0.56,-0.7 1.22,-1.3 1.97,-1.82 0.75,-0.52 1.54,-0.99 2.37,-1.39 0.83,-0.41 1.69,-0.77 2.55,-1.11 0.86,-0.33 1.69,-0.66 2.48,-0.98 0.68,-0.26 1.32,-0.52 1.9,-0.78 0.59,-0.27 1.11,-0.54 1.56,-0.83 0.45,-0.29 0.8,-0.6 1.06,-0.94 0.26,-0.34 0.39,-0.72 0.39,-1.12 0,-0.77 -0.35,-1.4 -1.06,-1.89 -0.71,-0.49 -1.71,-0.74 -3.01,-0.74 -1,0 -1.8,0.09 -2.4,0.28 -0.6,0.18 -1.06,0.44 -1.38,0.77 -0.32,0.33 -0.53,0.73 -0.62,1.19 -0.1,0.46 -0.16,0.96 -0.18,1.52l-6.7 0c0.03,-1.37 0.26,-2.55 0.72,-3.52 0.46,-0.98 1.17,-1.78 2.11,-2.41 0.95,-0.62 2.15,-1.08 3.59,-1.37 1.44,-0.3 3.16,-0.45 5.14,-0.45 1.47,0 2.87,0.14 4.18,0.4 1.31,0.27 2.46,0.68 3.45,1.22 0.98,0.54 1.76,1.23 2.34,2.05 0.58,0.82 0.87,1.78 0.87,2.87 0,1.02 -0.25,1.91 -0.75,2.64 -0.5,0.73 -1.15,1.38 -1.97,1.92 -0.81,0.54 -1.74,1.02 -2.77,1.44 -1.04,0.42 -2.09,0.82 -3.16,1.21 -1.29,0.47 -2.5,0.94 -3.66,1.44 -1.15,0.49 -2.06,1.08 -2.72,1.77l14.9 0 0 4.16 -22.94 0z"/>
   <path id="_1_11" class="fil14" d="M5472.53 373.08c0,-3.38 1.06,-5.98 3.17,-7.8 2.11,-1.82 5.37,-2.74 9.77,-2.74 4.4,0 7.65,0.92 9.74,2.74 2.09,1.82 3.14,4.42 3.14,7.8 0,1.62 -0.26,3.08 -0.78,4.38 -0.52,1.31 -1.31,2.41 -2.37,3.32 -1.06,0.91 -2.4,1.6 -4.01,2.08 -1.61,0.48 -3.52,0.72 -5.72,0.72 -4.4,0 -7.66,-0.93 -9.77,-2.79 -2.11,-1.86 -3.17,-4.43 -3.17,-7.72zm6.95 -0.03c0,0.87 0.09,1.7 0.27,2.47 0.18,0.77 0.5,1.44 0.94,2 0.45,0.56 1.06,1.01 1.83,1.33 0.77,0.32 1.74,0.49 2.91,0.49 1.11,0 2.05,-0.15 2.8,-0.45 0.76,-0.3 1.36,-0.72 1.82,-1.27 0.46,-0.54 0.79,-1.2 1,-1.98 0.2,-0.78 0.3,-1.64 0.3,-2.58 0,-0.88 -0.09,-1.7 -0.26,-2.47 -0.17,-0.77 -0.47,-1.43 -0.91,-1.99 -0.44,-0.55 -1.04,-0.99 -1.81,-1.31 -0.77,-0.32 -1.75,-0.48 -2.95,-0.48 -1.11,0 -2.05,0.14 -2.82,0.41 -0.77,0.28 -1.38,0.68 -1.84,1.22 -0.46,0.53 -0.79,1.19 -1,1.97 -0.2,0.78 -0.3,1.66 -0.3,2.64z"/>
   <path id="_2_12" class="fil14" d="M5501.99 383.46c-0.02,-1.17 0.12,-2.2 0.43,-3.1 0.31,-0.9 0.75,-1.69 1.31,-2.39 0.56,-0.7 1.22,-1.3 1.97,-1.82 0.75,-0.52 1.54,-0.99 2.37,-1.39 0.83,-0.41 1.69,-0.77 2.55,-1.11 0.86,-0.33 1.69,-0.66 2.48,-0.98 0.68,-0.26 1.32,-0.52 1.9,-0.78 0.59,-0.27 1.11,-0.54 1.56,-0.83 0.45,-0.29 0.8,-0.6 1.06,-0.94 0.26,-0.34 0.39,-0.72 0.39,-1.12 0,-0.77 -0.35,-1.4 -1.06,-1.89 -0.71,-0.49 -1.71,-0.74 -3.01,-0.74 -1,0 -1.8,0.09 -2.4,0.28 -0.6,0.18 -1.06,0.44 -1.38,0.77 -0.32,0.33 -0.53,0.73 -0.62,1.19 -0.1,0.46 -0.16,0.96 -0.18,1.52l-6.7 0c0.03,-1.37 0.26,-2.55 0.72,-3.52 0.46,-0.98 1.17,-1.78 2.11,-2.41 0.95,-0.62 2.15,-1.08 3.59,-1.37 1.44,-0.3 3.16,-0.45 5.14,-0.45 1.47,0 2.87,0.14 4.18,0.4 1.31,0.27 2.46,0.68 3.45,1.22 0.98,0.54 1.76,1.23 2.34,2.05 0.58,0.82 0.87,1.78 0.87,2.87 0,1.02 -0.25,1.91 -0.75,2.64 -0.5,0.73 -1.15,1.38 -1.97,1.92 -0.81,0.54 -1.74,1.02 -2.77,1.44 -1.04,0.42 -2.09,0.82 -3.16,1.21 -1.29,0.47 -2.5,0.94 -3.66,1.44 -1.15,0.49 -2.06,1.08 -2.72,1.77l14.9 0 0 4.16 -22.94 0z"/>
   <path id="_3_13" class="fil14" d="M5529.17 376.35l6.25 0c0.09,0.45 0.24,0.86 0.47,1.25 0.22,0.39 0.54,0.72 0.96,1.01 0.42,0.29 0.94,0.52 1.57,0.69 0.63,0.17 1.39,0.26 2.29,0.26 0.92,0 1.73,-0.1 2.45,-0.29 0.72,-0.19 1.31,-0.45 1.79,-0.77 0.49,-0.32 0.85,-0.69 1.09,-1.11 0.25,-0.41 0.37,-0.85 0.37,-1.29 0,-0.45 -0.13,-0.87 -0.39,-1.27 -0.26,-0.4 -0.62,-0.74 -1.1,-1.04 -0.49,-0.3 -1.07,-0.54 -1.77,-0.72 -0.7,-0.18 -1.49,-0.27 -2.39,-0.27 -1.21,0 -2.24,0.15 -3.07,0.46 -0.83,0.31 -1.56,0.72 -2.18,1.23l-5.77 -0.7 2.43 -10.96 19.19 0 0 3.81 -14.29 0 -0.73 3.24c0.87,-0.34 1.75,-0.57 2.61,-0.7 0.86,-0.12 1.8,-0.19 2.8,-0.19 1.54,0 2.96,0.16 4.27,0.48 1.32,0.32 2.45,0.78 3.41,1.38 0.96,0.6 1.72,1.32 2.26,2.16 0.54,0.85 0.81,1.79 0.81,2.83 0,2.5 -0.96,4.44 -2.88,5.8 -1.92,1.36 -4.93,2.05 -9.04,2.05 -7.69,0 -11.5,-2.45 -11.44,-7.34z"/>
  </g>
 </g>
</svg>
